0
SECTION
2
HEADER
9
$INSUNITS
70
4
0
ENDSEC
0
SECTION
2
TABLES
0
TABLE
2
LTYPE
0
LTYPE
72
65
70
64
2
CONTINUOUS
3
______
73
0
40
0
0
ENDTAB
0
TABLE
2
LAYER
0
ENDTAB
0
ENDSEC
0
SECTION
2
ENTITIES
0
LINE
8
0
10
-9
20
9
11
9
21
9
0
LINE
8
0
10
9
20
9
11
9
21
-9
0
LINE
8
0
10
9
20
-9
11
-9
21
-9
0
LINE
8
0
10
-9
20
-9
11
-9
21
9
0
LINE
8
0
10
-9
20
26
11
9
21
26
0
LINE
8
0
10
9
20
26
11
9
21
8
0
LINE
8
0
10
9
20
8
11
-9
21
8
0
LINE
8
0
10
-9
20
8
11
-9
21
26
0
LINE
8
0
10
-9
20
43
11
9
21
43
0
LINE
8
0
10
9
20
43
11
9
21
25
0
LINE
8
0
10
9
20
25
11
-9
21
25
0
LINE
8
0
10
-9
20
25
11
-9
21
43
0
LINE
8
0
10
-9
20
60
11
9
21
60
0
LINE
8
0
10
9
20
60
11
9
21
42
0
LINE
8
0
10
9
20
42
11
-9
21
42
0
LINE
8
0
10
-9
20
42
11
-9
21
60
0
LINE
8
0
10
10
20
19
11
28
21
19
0
LINE
8
0
10
28
20
19
11
28
21
1
0
LINE
8
0
10
28
20
1
11
10
21
1
0
LINE
8
0
10
10
20
1
11
10
21
19
0
LINE
8
0
10
10
20
36
11
28
21
36
0
LINE
8
0
10
28
20
36
11
28
21
18
0
LINE
8
0
10
28
20
18
11
10
21
18
0
LINE
8
0
10
10
20
18
11
10
21
36
0
LINE
8
0
10
10
20
53
11
28
21
53
0
LINE
8
0
10
28
20
53
11
28
21
35
0
LINE
8
0
10
28
20
35
11
10
21
35
0
LINE
8
0
10
10
20
35
11
10
21
53
0
LINE
8
0
10
10
20
70
11
28
21
70
0
LINE
8
0
10
28
20
70
11
28
21
52
0
LINE
8
0
10
28
20
52
11
10
21
52
0
LINE
8
0
10
10
20
52
11
10
21
70
0
LINE
8
0
10
29
20
24
11
47
21
24
0
LINE
8
0
10
47
20
24
11
47
21
6
0
LINE
8
0
10
47
20
6
11
29
21
6
0
LINE
8
0
10
29
20
6
11
29
21
24
0
LINE
8
0
10
29
20
41
11
47
21
41
0
LINE
8
0
10
47
20
41
11
47
21
23
0
LINE
8
0
10
47
20
23
11
29
21
23
0
LINE
8
0
10
29
20
23
11
29
21
41
0
LINE
8
0
10
29
20
58
11
47
21
58
0
LINE
8
0
10
47
20
58
11
47
21
40
0
LINE
8
0
10
47
20
40
11
29
21
40
0
LINE
8
0
10
29
20
40
11
29
21
58
0
LINE
8
0
10
29
20
75
11
47
21
75
0
LINE
8
0
10
47
20
75
11
47
21
57
0
LINE
8
0
10
47
20
57
11
29
21
57
0
LINE
8
0
10
29
20
57
11
29
21
75
0
LINE
8
0
10
48
20
19
11
66
21
19
0
LINE
8
0
10
66
20
19
11
66
21
1
0
LINE
8
0
10
66
20
1
11
48
21
1
0
LINE
8
0
10
48
20
1
11
48
21
19
0
LINE
8
0
10
48
20
36
11
66
21
36
0
LINE
8
0
10
66
20
36
11
66
21
18
0
LINE
8
0
10
66
20
18
11
48
21
18
0
LINE
8
0
10
48
20
18
11
48
21
36
0
LINE
8
0
10
48
20
53
11
66
21
53
0
LINE
8
0
10
66
20
53
11
66
21
35
0
LINE
8
0
10
66
20
35
11
48
21
35
0
LINE
8
0
10
48
20
35
11
48
21
53
0
LINE
8
0
10
48
20
70
11
66
21
70
0
LINE
8
0
10
66
20
70
11
66
21
52
0
LINE
8
0
10
66
20
52
11
48
21
52
0
LINE
8
0
10
48
20
52
11
48
21
70
0
LINE
8
0
10
67
20
19
11
85
21
19
0
LINE
8
0
10
85
20
19
11
85
21
1
0
LINE
8
0
10
85
20
1
11
67
21
1
0
LINE
8
0
10
67
20
1
11
67
21
19
0
LINE
8
0
10
67
20
36
11
85
21
36
0
LINE
8
0
10
85
20
36
11
85
21
18
0
LINE
8
0
10
85
20
18
11
67
21
18
0
LINE
8
0
10
67
20
18
11
67
21
36
0
LINE
8
0
10
67
20
53
11
85
21
53
0
LINE
8
0
10
85
20
53
11
85
21
35
0
LINE
8
0
10
85
20
35
11
67
21
35
0
LINE
8
0
10
67
20
35
11
67
21
53
0
LINE
8
0
10
67
20
70
11
85
21
70
0
LINE
8
0
10
85
20
70
11
85
21
52
0
LINE
8
0
10
85
20
52
11
67
21
52
0
LINE
8
0
10
67
20
52
11
67
21
70
0
ENDSEC
0
EOF