<svg width="94mm" height="84mm" viewBox="0 0 94 84" xmlns="http://www.w3.org/2000/svg"><g id="svgGroup" stroke-linecap="round" fill-rule="evenodd" font-size="9pt" stroke="#000" stroke-width="0.25mm" fill="none" style="stroke:#000;stroke-width:0.25mm;fill:none"><path d="M 0 66 L 18 66 L 18 84 L 0 84 L 0 66 Z M 0 49 L 18 49 L 18 67 L 0 67 L 0 49 Z M 0 32 L 18 32 L 18 50 L 0 50 L 0 32 Z M 0 15 L 18 15 L 18 33 L 0 33 L 0 15 Z M 19 56 L 37 56 L 37 74 L 19 74 L 19 56 Z M 19 39 L 37 39 L 37 57 L 19 57 L 19 39 Z M 19 22 L 37 22 L 37 40 L 19 40 L 19 22 Z M 19 5 L 37 5 L 37 23 L 19 23 L 19 5 Z M 38 51 L 56 51 L 56 69 L 38 69 L 38 51 Z M 38 34 L 56 34 L 56 52 L 38 52 L 38 34 Z M 38 17 L 56 17 L 56 35 L 38 35 L 38 17 Z M 38 0 L 56 0 L 56 18 L 38 18 L 38 0 Z M 57 56 L 75 56 L 75 74 L 57 74 L 57 56 Z M 57 39 L 75 39 L 75 57 L 57 57 L 57 39 Z M 57 22 L 75 22 L 75 40 L 57 40 L 57 22 Z M 57 5 L 75 5 L 75 23 L 57 23 L 57 5 Z M 76 56 L 94 56 L 94 74 L 76 74 L 76 56 Z M 76 39 L 94 39 L 94 57 L 76 57 L 76 39 Z M 76 22 L 94 22 L 94 40 L 76 40 L 76 22 Z M 76 5 L 94 5 L 94 23 L 76 23 L 76 5 Z" vector-effect="non-scaling-stroke"/></g></svg>