  0
SECTION
  2
HEADER
  9
$ACADVER
  1
AC1009
  9
$FILLMODE
 70
 0
  9
$SPLFRAME
 70
 1
  9
$EXTMIN
 10
0
 20
0
 30
0.0
  9
$EXTMAX
 10
1058.33
 20
1058.33
 30
0.0
  0
ENDSEC
  0
SECTION
  2
TABLES
  0
TABLE
  2
LAYER
 70
1
  0
LAYER
  2
0
 70
     0
 62
     7
  6
CONTINUOUS
  0
ENDTAB
  0
ENDSEC
  0
SECTION
  2
ENTITIES
  0
LINE
  8
0
 62
     0
 10
115.395
 20
82.4547
 30
0.0
 11
115.788
 21
82.4399
 31
0.0
  0
LINE
  8
0
 62
     0
 10
115.788
 20
82.4399
 30
0.0
 11
116.178
 21
82.393
 31
0.0
  0
LINE
  8
0
 62
     0
 10
116.178
 20
82.393
 30
0.0
 11
116.564
 21
82.3172
 31
0.0
  0
LINE
  8
0
 62
     0
 10
116.564
 20
82.3172
 30
0.0
 11
116.942
 21
82.211
 31
0.0
  0
LINE
  8
0
 62
     0
 10
116.942
 20
82.211
 30
0.0
 11
117.31
 21
82.0745
 31
0.0
  0
LINE
  8
0
 62
     0
 10
117.31
 20
82.0745
 30
0.0
 11
117.665
 21
81.9108
 31
0.0
  0
LINE
  8
0
 62
     0
 10
117.665
 20
81.9108
 30
0.0
 11
118.008
 21
81.7192
 31
0.0
  0
LINE
  8
0
 62
     0
 10
118.008
 20
81.7192
 30
0.0
 11
118.335
 21
81.4998
 31
0.0
  0
LINE
  8
0
 62
     0
 10
118.335
 20
81.4998
 30
0.0
 11
118.644
 21
81.2574
 31
0.0
  0
LINE
  8
0
 62
     0
 10
118.644
 20
81.2574
 30
0.0
 11
118.932
 21
80.99
 31
0.0
  0
LINE
  8
0
 62
     0
 10
118.932
 20
80.99
 30
0.0
 11
119.199
 21
80.7021
 31
0.0
  0
LINE
  8
0
 62
     0
 10
119.199
 20
80.7021
 30
0.0
 11
119.441
 21
80.3935
 31
0.0
  0
LINE
  8
0
 62
     0
 10
119.441
 20
80.3935
 30
0.0
 11
119.659
 21
80.0682
 31
0.0
  0
LINE
  8
0
 62
     0
 10
119.659
 20
80.0682
 30
0.0
 11
119.852
 21
79.725
 31
0.0
  0
LINE
  8
0
 62
     0
 10
119.852
 20
79.725
 30
0.0
 11
120.016
 21
79.3679
 31
0.0
  0
LINE
  8
0
 62
     0
 10
120.016
 20
79.3679
 30
0.0
 11
120.151
 21
79.0004
 31
0.0
  0
LINE
  8
0
 62
     0
 10
120.151
 20
79.0004
 30
0.0
 11
120.257
 21
78.6225
 31
0.0
  0
LINE
  8
0
 62
     0
 10
120.257
 20
78.6225
 30
0.0
 11
120.334
 21
78.238
 31
0.0
  0
LINE
  8
0
 62
     0
 10
120.334
 20
78.238
 30
0.0
 11
120.38
 21
77.8482
 31
0.0
  0
LINE
  8
0
 62
     0
 10
120.38
 20
77.8482
 30
0.0
 11
120.396
 21
77.4541
 31
0.0
  0
LINE
  8
0
 62
     0
 10
120.396
 20
77.4541
 30
0.0
 11
120.395
 21
5.25307
 31
0.0
  0
LINE
  8
0
 62
     0
 10
120.395
 20
5.25307
 30
0.0
 11
120.38
 21
4.86174
 31
0.0
  0
LINE
  8
0
 62
     0
 10
120.38
 20
4.86174
 30
0.0
 11
120.334
 21
4.47174
 31
0.0
  0
LINE
  8
0
 62
     0
 10
120.334
 20
4.47174
 30
0.0
 11
120.257
 21
4.08587
 31
0.0
  0
LINE
  8
0
 62
     0
 10
120.257
 20
4.08587
 30
0.0
 11
120.151
 21
3.70829
 31
0.0
  0
LINE
  8
0
 62
     0
 10
120.151
 20
3.70829
 30
0.0
 11
120.016
 21
3.34036
 31
0.0
  0
LINE
  8
0
 62
     0
 10
120.016
 20
3.34036
 30
0.0
 11
119.852
 21
2.98483
 31
0.0
  0
LINE
  8
0
 62
     0
 10
119.852
 20
2.98483
 30
0.0
 11
119.659
 21
2.6417
 31
0.0
  0
LINE
  8
0
 62
     0
 10
119.659
 20
2.6417
 30
0.0
 11
119.441
 21
2.3151
 31
0.0
  0
LINE
  8
0
 62
     0
 10
119.441
 20
2.3151
 30
0.0
 11
119.199
 21
2.00642
 31
0.0
  0
LINE
  8
0
 62
     0
 10
119.199
 20
2.00642
 30
0.0
 11
118.932
 21
1.71841
 31
0.0
  0
LINE
  8
0
 62
     0
 10
118.932
 20
1.71841
 30
0.0
 11
118.644
 21
1.45107
 31
0.0
  0
LINE
  8
0
 62
     0
 10
118.644
 20
1.45107
 30
0.0
 11
118.335
 21
1.20854
 31
0.0
  0
LINE
  8
0
 62
     0
 10
118.335
 20
1.20854
 30
0.0
 11
118.008
 21
0.990808
 31
0.0
  0
LINE
  8
0
 62
     0
 10
118.008
 20
0.990808
 30
0.0
 11
117.665
 21
0.797885
 31
0.0
  0
LINE
  8
0
 62
     0
 10
117.665
 20
0.797885
 30
0.0
 11
117.31
 21
0.633899
 31
0.0
  0
LINE
  8
0
 62
     0
 10
117.31
 20
0.633899
 30
0.0
 11
116.942
 21
0.498849
 31
0.0
  0
LINE
  8
0
 62
     0
 10
116.942
 20
0.498849
 30
0.0
 11
116.564
 21
0.39274
 31
0.0
  0
LINE
  8
0
 62
     0
 10
116.564
 20
0.39274
 30
0.0
 11
116.178
 21
0.315571
 31
0.0
  0
LINE
  8
0
 62
     0
 10
116.178
 20
0.315571
 30
0.0
 11
115.788
 21
0.270095
 31
0.0
  0
LINE
  8
0
 62
     0
 10
115.788
 20
0.270095
 30
0.0
 11
115.395
 21
0.253559
 31
0.0
  0
LINE
  8
0
 62
     0
 10
115.395
 20
0.253559
 30
0.0
 11
5.09598
 21
0.253559
 31
0.0
  0
LINE
  8
0
 62
     0
 10
5.09598
 20
0.253559
 30
0.0
 11
4.70186
 21
0.270095
 31
0.0
  0
LINE
  8
0
 62
     0
 10
4.70186
 20
0.270095
 30
0.0
 11
4.3119
 21
0.315571
 31
0.0
  0
LINE
  8
0
 62
     0
 10
4.3119
 20
0.315571
 30
0.0
 11
3.9274
 21
0.39274
 31
0.0
  0
LINE
  8
0
 62
     0
 10
3.9274
 20
0.39274
 30
0.0
 11
3.54983
 21
0.498849
 31
0.0
  0
LINE
  8
0
 62
     0
 10
3.54983
 20
0.498849
 30
0.0
 11
3.18189
 21
0.633899
 31
0.0
  0
LINE
  8
0
 62
     0
 10
3.18189
 20
0.633899
 30
0.0
 11
2.82498
 21
0.797885
 31
0.0
  0
LINE
  8
0
 62
     0
 10
2.82498
 20
0.797885
 30
0.0
 11
2.48185
 21
0.990808
 31
0.0
  0
LINE
  8
0
 62
     0
 10
2.48185
 20
0.990808
 30
0.0
 11
2.15663
 21
1.20854
 31
0.0
  0
LINE
  8
0
 62
     0
 10
2.15663
 20
1.20854
 30
0.0
 11
1.84795
 21
1.45107
 31
0.0
  0
LINE
  8
0
 62
     0
 10
1.84795
 20
1.45107
 30
0.0
 11
1.55994
 21
1.71841
 31
0.0
  0
LINE
  8
0
 62
     0
 10
1.55994
 20
1.71841
 30
0.0
 11
1.2926
 21
2.00642
 31
0.0
  0
LINE
  8
0
 62
     0
 10
1.2926
 20
2.00642
 30
0.0
 11
1.05006
 21
2.3151
 31
0.0
  0
LINE
  8
0
 62
     0
 10
1.05006
 20
2.3151
 30
0.0
 11
0.830957
 21
2.6417
 31
0.0
  0
LINE
  8
0
 62
     0
 10
0.830957
 20
2.6417
 30
0.0
 11
0.63941
 21
2.98483
 31
0.0
  0
LINE
  8
0
 62
     0
 10
0.63941
 20
2.98483
 30
0.0
 11
0.475424
 21
3.34036
 31
0.0
  0
LINE
  8
0
 62
     0
 10
0.475424
 20
3.34036
 30
0.0
 11
0.338998
 21
3.70829
 31
0.0
  0
LINE
  8
0
 62
     0
 10
0.338998
 20
3.70829
 30
0.0
 11
0.232888
 21
4.08587
 31
0.0
  0
LINE
  8
0
 62
     0
 10
0.232888
 20
4.08587
 30
0.0
 11
0.157097
 21
4.47174
 31
0.0
  0
LINE
  8
0
 62
     0
 10
0.157097
 20
4.47174
 30
0.0
 11
0.110243
 21
4.86174
 31
0.0
  0
LINE
  8
0
 62
     0
 10
0.110243
 20
4.86174
 30
0.0
 11
0.0950846
 21
5.25445
 31
0.0
  0
LINE
  8
0
 62
     0
 10
0.0950846
 20
5.25445
 30
0.0
 11
0.0950846
 21
77.4541
 31
0.0
  0
LINE
  8
0
 62
     0
 10
0.0950846
 20
77.4541
 30
0.0
 11
0.110243
 21
77.8482
 31
0.0
  0
LINE
  8
0
 62
     0
 10
0.110243
 20
77.8482
 30
0.0
 11
0.157097
 21
78.238
 31
0.0
  0
LINE
  8
0
 62
     0
 10
0.157097
 20
78.238
 30
0.0
 11
0.232888
 21
78.6225
 31
0.0
  0
LINE
  8
0
 62
     0
 10
0.232888
 20
78.6225
 30
0.0
 11
0.338998
 21
79.0004
 31
0.0
  0
LINE
  8
0
 62
     0
 10
0.338998
 20
79.0004
 30
0.0
 11
0.475424
 21
79.3679
 31
0.0
  0
LINE
  8
0
 62
     0
 10
0.475424
 20
79.3679
 30
0.0
 11
0.63941
 21
79.725
 31
0.0
  0
LINE
  8
0
 62
     0
 10
0.63941
 20
79.725
 30
0.0
 11
0.830957
 21
80.0682
 31
0.0
  0
LINE
  8
0
 62
     0
 10
0.830957
 20
80.0682
 30
0.0
 11
1.05006
 21
80.3935
 31
0.0
  0
LINE
  8
0
 62
     0
 10
1.05006
 20
80.3935
 30
0.0
 11
1.2926
 21
80.7021
 31
0.0
  0
LINE
  8
0
 62
     0
 10
1.2926
 20
80.7021
 30
0.0
 11
1.55994
 21
80.99
 31
0.0
  0
LINE
  8
0
 62
     0
 10
1.55994
 20
80.99
 30
0.0
 11
1.84795
 21
81.2574
 31
0.0
  0
LINE
  8
0
 62
     0
 10
1.84795
 20
81.2574
 30
0.0
 11
2.15663
 21
81.4998
 31
0.0
  0
LINE
  8
0
 62
     0
 10
2.15663
 20
81.4998
 30
0.0
 11
2.48185
 21
81.7192
 31
0.0
  0
LINE
  8
0
 62
     0
 10
2.48185
 20
81.7192
 30
0.0
 11
2.82498
 21
81.9108
 31
0.0
  0
LINE
  8
0
 62
     0
 10
2.82498
 20
81.9108
 30
0.0
 11
3.18189
 21
82.0745
 31
0.0
  0
LINE
  8
0
 62
     0
 10
3.18189
 20
82.0745
 30
0.0
 11
3.54983
 21
82.211
 31
0.0
  0
LINE
  8
0
 62
     0
 10
3.54983
 20
82.211
 30
0.0
 11
3.9274
 21
82.3172
 31
0.0
  0
LINE
  8
0
 62
     0
 10
3.9274
 20
82.3172
 30
0.0
 11
4.3119
 21
82.393
 31
0.0
  0
LINE
  8
0
 62
     0
 10
4.3119
 20
82.393
 30
0.0
 11
4.70186
 21
82.4399
 31
0.0
  0
LINE
  8
0
 62
     0
 10
4.70186
 20
82.4399
 30
0.0
 11
5.09598
 21
82.4547
 31
0.0
  0
LINE
  8
0
 62
     0
 10
5.09598
 20
82.4547
 30
0.0
 11
115.395
 21
82.4547
 31
0.0
  0
LINE
  8
0
 62
     0
 10
5.61964
 20
19.779
 30
0.0
 11
5.61964
 21
18.7799
 31
0.0
  0
LINE
  8
0
 62
     0
 10
5.61964
 20
18.7799
 30
0.0
 11
4.81902
 21
18.7799
 31
0.0
  0
LINE
  8
0
 62
     0
 10
4.81902
 20
18.7799
 30
0.0
 11
4.81902
 21
15.6807
 31
0.0
  0
LINE
  8
0
 62
     0
 10
4.81902
 20
15.6807
 30
0.0
 11
5.61964
 21
15.6807
 31
0.0
  0
LINE
  8
0
 62
     0
 10
5.61964
 20
15.6807
 30
0.0
 11
5.61964
 21
9.87915
 31
0.0
  0
LINE
  8
0
 62
     0
 10
5.61964
 20
9.87915
 30
0.0
 11
4.81902
 21
9.87915
 31
0.0
  0
LINE
  8
0
 62
     0
 10
4.81902
 20
9.87915
 30
0.0
 11
4.81902
 21
6.77997
 31
0.0
  0
LINE
  8
0
 62
     0
 10
4.81902
 20
6.77997
 30
0.0
 11
5.61964
 21
6.77997
 31
0.0
  0
LINE
  8
0
 62
     0
 10
5.61964
 20
6.77997
 30
0.0
 11
5.61964
 21
5.77949
 31
0.0
  0
LINE
  8
0
 62
     0
 10
5.61964
 20
5.77949
 30
0.0
 11
19.6205
 21
5.77949
 31
0.0
  0
LINE
  8
0
 62
     0
 10
19.6205
 20
5.77949
 30
0.0
 11
19.6205
 21
6.77997
 31
0.0
  0
LINE
  8
0
 62
     0
 10
19.6205
 20
6.77997
 30
0.0
 11
20.4211
 21
6.77997
 31
0.0
  0
LINE
  8
0
 62
     0
 10
20.4211
 20
6.77997
 30
0.0
 11
20.4211
 21
9.87915
 31
0.0
  0
LINE
  8
0
 62
     0
 10
20.4211
 20
9.87915
 30
0.0
 11
19.6205
 21
9.87915
 31
0.0
  0
LINE
  8
0
 62
     0
 10
19.6205
 20
9.87915
 30
0.0
 11
19.6205
 21
15.6807
 31
0.0
  0
LINE
  8
0
 62
     0
 10
19.6205
 20
15.6807
 30
0.0
 11
20.4211
 21
15.6807
 31
0.0
  0
LINE
  8
0
 62
     0
 10
20.4211
 20
15.6807
 30
0.0
 11
20.4211
 21
18.7799
 31
0.0
  0
LINE
  8
0
 62
     0
 10
20.4211
 20
18.7799
 30
0.0
 11
19.6205
 21
18.7799
 31
0.0
  0
LINE
  8
0
 62
     0
 10
19.6205
 20
18.7799
 30
0.0
 11
19.6205
 21
19.779
 31
0.0
  0
LINE
  8
0
 62
     0
 10
19.6205
 20
19.779
 30
0.0
 11
5.61964
 21
19.779
 31
0.0
  0
LINE
  8
0
 62
     0
 10
24.671
 20
19.779
 30
0.0
 11
24.671
 21
18.7799
 31
0.0
  0
LINE
  8
0
 62
     0
 10
24.671
 20
18.7799
 30
0.0
 11
23.8704
 21
18.7799
 31
0.0
  0
LINE
  8
0
 62
     0
 10
23.8704
 20
18.7799
 30
0.0
 11
23.8704
 21
15.6807
 31
0.0
  0
LINE
  8
0
 62
     0
 10
23.8704
 20
15.6807
 30
0.0
 11
24.671
 21
15.6807
 31
0.0
  0
LINE
  8
0
 62
     0
 10
24.671
 20
15.6807
 30
0.0
 11
24.671
 21
9.87915
 31
0.0
  0
LINE
  8
0
 62
     0
 10
24.671
 20
9.87915
 30
0.0
 11
23.8704
 21
9.87915
 31
0.0
  0
LINE
  8
0
 62
     0
 10
23.8704
 20
9.87915
 30
0.0
 11
23.8704
 21
6.77997
 31
0.0
  0
LINE
  8
0
 62
     0
 10
23.8704
 20
6.77997
 30
0.0
 11
24.671
 21
6.77997
 31
0.0
  0
LINE
  8
0
 62
     0
 10
24.671
 20
6.77997
 30
0.0
 11
24.671
 21
5.77949
 31
0.0
  0
LINE
  8
0
 62
     0
 10
24.671
 20
5.77949
 30
0.0
 11
38.6704
 21
5.77949
 31
0.0
  0
LINE
  8
0
 62
     0
 10
38.6704
 20
5.77949
 30
0.0
 11
38.6704
 21
6.77997
 31
0.0
  0
LINE
  8
0
 62
     0
 10
38.6704
 20
6.77997
 30
0.0
 11
39.4712
 21
6.77997
 31
0.0
  0
LINE
  8
0
 62
     0
 10
39.4712
 20
6.77997
 30
0.0
 11
39.4712
 21
9.87915
 31
0.0
  0
LINE
  8
0
 62
     0
 10
39.4712
 20
9.87915
 30
0.0
 11
38.6704
 21
9.87915
 31
0.0
  0
LINE
  8
0
 62
     0
 10
38.6704
 20
9.87915
 30
0.0
 11
38.6704
 21
15.6807
 31
0.0
  0
LINE
  8
0
 62
     0
 10
38.6704
 20
15.6807
 30
0.0
 11
39.4712
 21
15.6807
 31
0.0
  0
LINE
  8
0
 62
     0
 10
39.4712
 20
15.6807
 30
0.0
 11
39.4712
 21
18.7799
 31
0.0
  0
LINE
  8
0
 62
     0
 10
39.4712
 20
18.7799
 30
0.0
 11
38.6704
 21
18.7799
 31
0.0
  0
LINE
  8
0
 62
     0
 10
38.6704
 20
18.7799
 30
0.0
 11
38.6704
 21
19.779
 31
0.0
  0
LINE
  8
0
 62
     0
 10
38.6704
 20
19.779
 30
0.0
 11
24.671
 21
19.779
 31
0.0
  0
LINE
  8
0
 62
     0
 10
43.7212
 20
19.779
 30
0.0
 11
43.7212
 21
18.7799
 31
0.0
  0
LINE
  8
0
 62
     0
 10
43.7212
 20
18.7799
 30
0.0
 11
42.9204
 21
18.7799
 31
0.0
  0
LINE
  8
0
 62
     0
 10
42.9204
 20
18.7799
 30
0.0
 11
42.9204
 21
15.6807
 31
0.0
  0
LINE
  8
0
 62
     0
 10
42.9204
 20
15.6807
 30
0.0
 11
43.7212
 21
15.6807
 31
0.0
  0
LINE
  8
0
 62
     0
 10
43.7212
 20
15.6807
 30
0.0
 11
43.7212
 21
9.87915
 31
0.0
  0
LINE
  8
0
 62
     0
 10
43.7212
 20
9.87915
 30
0.0
 11
42.9204
 21
9.87915
 31
0.0
  0
LINE
  8
0
 62
     0
 10
42.9204
 20
9.87915
 30
0.0
 11
42.9204
 21
6.77997
 31
0.0
  0
LINE
  8
0
 62
     0
 10
42.9204
 20
6.77997
 30
0.0
 11
43.7212
 21
6.77997
 31
0.0
  0
LINE
  8
0
 62
     0
 10
43.7212
 20
6.77997
 30
0.0
 11
43.7212
 21
5.77949
 31
0.0
  0
LINE
  8
0
 62
     0
 10
43.7212
 20
5.77949
 30
0.0
 11
57.7204
 21
5.77949
 31
0.0
  0
LINE
  8
0
 62
     0
 10
57.7204
 20
5.77949
 30
0.0
 11
57.7204
 21
6.77997
 31
0.0
  0
LINE
  8
0
 62
     0
 10
57.7204
 20
6.77997
 30
0.0
 11
58.5212
 21
6.77997
 31
0.0
  0
LINE
  8
0
 62
     0
 10
58.5212
 20
6.77997
 30
0.0
 11
58.5212
 21
9.87915
 31
0.0
  0
LINE
  8
0
 62
     0
 10
58.5212
 20
9.87915
 30
0.0
 11
57.7204
 21
9.87915
 31
0.0
  0
LINE
  8
0
 62
     0
 10
57.7204
 20
9.87915
 30
0.0
 11
57.7204
 21
15.6807
 31
0.0
  0
LINE
  8
0
 62
     0
 10
57.7204
 20
15.6807
 30
0.0
 11
58.5212
 21
15.6807
 31
0.0
  0
LINE
  8
0
 62
     0
 10
58.5212
 20
15.6807
 30
0.0
 11
58.5212
 21
18.7799
 31
0.0
  0
LINE
  8
0
 62
     0
 10
58.5212
 20
18.7799
 30
0.0
 11
57.7204
 21
18.7799
 31
0.0
  0
LINE
  8
0
 62
     0
 10
57.7204
 20
18.7799
 30
0.0
 11
57.7204
 21
19.779
 31
0.0
  0
LINE
  8
0
 62
     0
 10
57.7204
 20
19.779
 30
0.0
 11
43.7212
 21
19.779
 31
0.0
  0
LINE
  8
0
 62
     0
 10
62.7712
 20
19.779
 30
0.0
 11
62.7712
 21
18.7799
 31
0.0
  0
LINE
  8
0
 62
     0
 10
62.7712
 20
18.7799
 30
0.0
 11
61.9704
 21
18.7799
 31
0.0
  0
LINE
  8
0
 62
     0
 10
61.9704
 20
18.7799
 30
0.0
 11
61.9704
 21
15.6807
 31
0.0
  0
LINE
  8
0
 62
     0
 10
61.9704
 20
15.6807
 30
0.0
 11
62.7712
 21
15.6807
 31
0.0
  0
LINE
  8
0
 62
     0
 10
62.7712
 20
15.6807
 30
0.0
 11
62.7712
 21
9.87915
 31
0.0
  0
LINE
  8
0
 62
     0
 10
62.7712
 20
9.87915
 30
0.0
 11
61.9704
 21
9.87915
 31
0.0
  0
LINE
  8
0
 62
     0
 10
61.9704
 20
9.87915
 30
0.0
 11
61.9704
 21
6.77997
 31
0.0
  0
LINE
  8
0
 62
     0
 10
61.9704
 20
6.77997
 30
0.0
 11
62.7712
 21
6.77997
 31
0.0
  0
LINE
  8
0
 62
     0
 10
62.7712
 20
6.77997
 30
0.0
 11
62.7712
 21
5.77949
 31
0.0
  0
LINE
  8
0
 62
     0
 10
62.7712
 20
5.77949
 30
0.0
 11
76.7704
 21
5.77949
 31
0.0
  0
LINE
  8
0
 62
     0
 10
76.7704
 20
5.77949
 30
0.0
 11
76.7704
 21
6.77997
 31
0.0
  0
LINE
  8
0
 62
     0
 10
76.7704
 20
6.77997
 30
0.0
 11
77.5712
 21
6.77997
 31
0.0
  0
LINE
  8
0
 62
     0
 10
77.5712
 20
6.77997
 30
0.0
 11
77.5712
 21
9.87915
 31
0.0
  0
LINE
  8
0
 62
     0
 10
77.5712
 20
9.87915
 30
0.0
 11
76.7704
 21
9.87915
 31
0.0
  0
LINE
  8
0
 62
     0
 10
76.7704
 20
9.87915
 30
0.0
 11
76.7704
 21
15.6807
 31
0.0
  0
LINE
  8
0
 62
     0
 10
76.7704
 20
15.6807
 30
0.0
 11
77.5712
 21
15.6807
 31
0.0
  0
LINE
  8
0
 62
     0
 10
77.5712
 20
15.6807
 30
0.0
 11
77.5712
 21
18.7799
 31
0.0
  0
LINE
  8
0
 62
     0
 10
77.5712
 20
18.7799
 30
0.0
 11
76.7704
 21
18.7799
 31
0.0
  0
LINE
  8
0
 62
     0
 10
76.7704
 20
18.7799
 30
0.0
 11
76.7704
 21
19.779
 31
0.0
  0
LINE
  8
0
 62
     0
 10
76.7704
 20
19.779
 30
0.0
 11
62.7712
 21
19.779
 31
0.0
  0
LINE
  8
0
 62
     0
 10
81.8212
 20
19.779
 30
0.0
 11
81.8212
 21
18.7799
 31
0.0
  0
LINE
  8
0
 62
     0
 10
81.8212
 20
18.7799
 30
0.0
 11
81.0204
 21
18.7799
 31
0.0
  0
LINE
  8
0
 62
     0
 10
81.0204
 20
18.7799
 30
0.0
 11
81.0204
 21
15.6807
 31
0.0
  0
LINE
  8
0
 62
     0
 10
81.0204
 20
15.6807
 30
0.0
 11
81.8212
 21
15.6807
 31
0.0
  0
LINE
  8
0
 62
     0
 10
81.8212
 20
15.6807
 30
0.0
 11
81.8212
 21
9.87915
 31
0.0
  0
LINE
  8
0
 62
     0
 10
81.8212
 20
9.87915
 30
0.0
 11
81.0204
 21
9.87915
 31
0.0
  0
LINE
  8
0
 62
     0
 10
81.0204
 20
9.87915
 30
0.0
 11
81.0204
 21
6.77997
 31
0.0
  0
LINE
  8
0
 62
     0
 10
81.0204
 20
6.77997
 30
0.0
 11
81.8212
 21
6.77997
 31
0.0
  0
LINE
  8
0
 62
     0
 10
81.8212
 20
6.77997
 30
0.0
 11
81.8212
 21
5.77949
 31
0.0
  0
LINE
  8
0
 62
     0
 10
81.8212
 20
5.77949
 30
0.0
 11
95.8204
 21
5.77949
 31
0.0
  0
LINE
  8
0
 62
     0
 10
95.8204
 20
5.77949
 30
0.0
 11
95.8204
 21
6.77997
 31
0.0
  0
LINE
  8
0
 62
     0
 10
95.8204
 20
6.77997
 30
0.0
 11
96.6198
 21
6.77997
 31
0.0
  0
LINE
  8
0
 62
     0
 10
96.6198
 20
6.77997
 30
0.0
 11
96.6198
 21
9.87915
 31
0.0
  0
LINE
  8
0
 62
     0
 10
96.6198
 20
9.87915
 30
0.0
 11
95.8204
 21
9.87915
 31
0.0
  0
LINE
  8
0
 62
     0
 10
95.8204
 20
9.87915
 30
0.0
 11
95.8204
 21
15.6807
 31
0.0
  0
LINE
  8
0
 62
     0
 10
95.8204
 20
15.6807
 30
0.0
 11
96.6198
 21
15.6807
 31
0.0
  0
LINE
  8
0
 62
     0
 10
96.6198
 20
15.6807
 30
0.0
 11
96.6198
 21
18.7799
 31
0.0
  0
LINE
  8
0
 62
     0
 10
96.6198
 20
18.7799
 30
0.0
 11
95.8204
 21
18.7799
 31
0.0
  0
LINE
  8
0
 62
     0
 10
95.8204
 20
18.7799
 30
0.0
 11
95.8204
 21
19.779
 31
0.0
  0
LINE
  8
0
 62
     0
 10
95.8204
 20
19.779
 30
0.0
 11
81.8212
 21
19.779
 31
0.0
  0
LINE
  8
0
 62
     0
 10
100.87
 20
19.779
 30
0.0
 11
100.87
 21
18.7799
 31
0.0
  0
LINE
  8
0
 62
     0
 10
100.87
 20
18.7799
 30
0.0
 11
100.07
 21
18.7799
 31
0.0
  0
LINE
  8
0
 62
     0
 10
100.07
 20
18.7799
 30
0.0
 11
100.07
 21
15.6807
 31
0.0
  0
LINE
  8
0
 62
     0
 10
100.07
 20
15.6807
 30
0.0
 11
100.87
 21
15.6807
 31
0.0
  0
LINE
  8
0
 62
     0
 10
100.87
 20
15.6807
 30
0.0
 11
100.87
 21
9.87915
 31
0.0
  0
LINE
  8
0
 62
     0
 10
100.87
 20
9.87915
 30
0.0
 11
100.07
 21
9.87915
 31
0.0
  0
LINE
  8
0
 62
     0
 10
100.07
 20
9.87915
 30
0.0
 11
100.07
 21
6.77997
 31
0.0
  0
LINE
  8
0
 62
     0
 10
100.07
 20
6.77997
 30
0.0
 11
100.87
 21
6.77997
 31
0.0
  0
LINE
  8
0
 62
     0
 10
100.87
 20
6.77997
 30
0.0
 11
100.87
 21
5.77949
 31
0.0
  0
LINE
  8
0
 62
     0
 10
100.87
 20
5.77949
 30
0.0
 11
114.869
 21
5.77949
 31
0.0
  0
LINE
  8
0
 62
     0
 10
114.869
 20
5.77949
 30
0.0
 11
114.869
 21
6.77997
 31
0.0
  0
LINE
  8
0
 62
     0
 10
114.869
 20
6.77997
 30
0.0
 11
115.67
 21
6.77997
 31
0.0
  0
LINE
  8
0
 62
     0
 10
115.67
 20
6.77997
 30
0.0
 11
115.67
 21
9.87915
 31
0.0
  0
LINE
  8
0
 62
     0
 10
115.67
 20
9.87915
 30
0.0
 11
114.869
 21
9.87915
 31
0.0
  0
LINE
  8
0
 62
     0
 10
114.869
 20
9.87915
 30
0.0
 11
114.869
 21
15.6807
 31
0.0
  0
LINE
  8
0
 62
     0
 10
114.869
 20
15.6807
 30
0.0
 11
115.67
 21
15.6807
 31
0.0
  0
LINE
  8
0
 62
     0
 10
115.67
 20
15.6807
 30
0.0
 11
115.67
 21
18.7799
 31
0.0
  0
LINE
  8
0
 62
     0
 10
115.67
 20
18.7799
 30
0.0
 11
114.869
 21
18.7799
 31
0.0
  0
LINE
  8
0
 62
     0
 10
114.869
 20
18.7799
 30
0.0
 11
114.869
 21
19.779
 31
0.0
  0
LINE
  8
0
 62
     0
 10
114.869
 20
19.779
 30
0.0
 11
100.87
 21
19.779
 31
0.0
  0
LINE
  8
0
 62
     0
 10
5.61964
 20
38.8288
 30
0.0
 11
5.61964
 21
37.8298
 31
0.0
  0
LINE
  8
0
 62
     0
 10
5.61964
 20
37.8298
 30
0.0
 11
4.81902
 21
37.8298
 31
0.0
  0
LINE
  8
0
 62
     0
 10
4.81902
 20
37.8298
 30
0.0
 11
4.81902
 21
34.7293
 31
0.0
  0
LINE
  8
0
 62
     0
 10
4.81902
 20
34.7293
 30
0.0
 11
5.61964
 21
34.7293
 31
0.0
  0
LINE
  8
0
 62
     0
 10
5.61964
 20
34.7293
 30
0.0
 11
5.61964
 21
28.9292
 31
0.0
  0
LINE
  8
0
 62
     0
 10
5.61964
 20
28.9292
 30
0.0
 11
4.81902
 21
28.9292
 31
0.0
  0
LINE
  8
0
 62
     0
 10
4.81902
 20
28.9292
 30
0.0
 11
4.81902
 21
25.83
 31
0.0
  0
LINE
  8
0
 62
     0
 10
4.81902
 20
25.83
 30
0.0
 11
5.61964
 21
25.83
 31
0.0
  0
LINE
  8
0
 62
     0
 10
5.61964
 20
25.83
 30
0.0
 11
5.61964
 21
24.8295
 31
0.0
  0
LINE
  8
0
 62
     0
 10
5.61964
 20
24.8295
 30
0.0
 11
19.6205
 21
24.8295
 31
0.0
  0
LINE
  8
0
 62
     0
 10
19.6205
 20
24.8295
 30
0.0
 11
19.6205
 21
25.83
 31
0.0
  0
LINE
  8
0
 62
     0
 10
19.6205
 20
25.83
 30
0.0
 11
20.4211
 21
25.83
 31
0.0
  0
LINE
  8
0
 62
     0
 10
20.4211
 20
25.83
 30
0.0
 11
20.4211
 21
28.9292
 31
0.0
  0
LINE
  8
0
 62
     0
 10
20.4211
 20
28.9292
 30
0.0
 11
19.6205
 21
28.9292
 31
0.0
  0
LINE
  8
0
 62
     0
 10
19.6205
 20
28.9292
 30
0.0
 11
19.6205
 21
34.7293
 31
0.0
  0
LINE
  8
0
 62
     0
 10
19.6205
 20
34.7293
 30
0.0
 11
20.4211
 21
34.7293
 31
0.0
  0
LINE
  8
0
 62
     0
 10
20.4211
 20
34.7293
 30
0.0
 11
20.4211
 21
37.8298
 31
0.0
  0
LINE
  8
0
 62
     0
 10
20.4211
 20
37.8298
 30
0.0
 11
19.6205
 21
37.8298
 31
0.0
  0
LINE
  8
0
 62
     0
 10
19.6205
 20
37.8298
 30
0.0
 11
19.6205
 21
38.8288
 31
0.0
  0
LINE
  8
0
 62
     0
 10
19.6205
 20
38.8288
 30
0.0
 11
5.61964
 21
38.8288
 31
0.0
  0
LINE
  8
0
 62
     0
 10
24.671
 20
38.8288
 30
0.0
 11
24.671
 21
37.8298
 31
0.0
  0
LINE
  8
0
 62
     0
 10
24.671
 20
37.8298
 30
0.0
 11
23.8704
 21
37.8298
 31
0.0
  0
LINE
  8
0
 62
     0
 10
23.8704
 20
37.8298
 30
0.0
 11
23.8704
 21
34.7293
 31
0.0
  0
LINE
  8
0
 62
     0
 10
23.8704
 20
34.7293
 30
0.0
 11
24.671
 21
34.7293
 31
0.0
  0
LINE
  8
0
 62
     0
 10
24.671
 20
34.7293
 30
0.0
 11
24.671
 21
28.9292
 31
0.0
  0
LINE
  8
0
 62
     0
 10
24.671
 20
28.9292
 30
0.0
 11
23.8704
 21
28.9292
 31
0.0
  0
LINE
  8
0
 62
     0
 10
23.8704
 20
28.9292
 30
0.0
 11
23.8704
 21
25.83
 31
0.0
  0
LINE
  8
0
 62
     0
 10
23.8704
 20
25.83
 30
0.0
 11
24.671
 21
25.83
 31
0.0
  0
LINE
  8
0
 62
     0
 10
24.671
 20
25.83
 30
0.0
 11
24.671
 21
24.8295
 31
0.0
  0
LINE
  8
0
 62
     0
 10
24.671
 20
24.8295
 30
0.0
 11
38.6704
 21
24.8295
 31
0.0
  0
LINE
  8
0
 62
     0
 10
38.6704
 20
24.8295
 30
0.0
 11
38.6704
 21
25.83
 31
0.0
  0
LINE
  8
0
 62
     0
 10
38.6704
 20
25.83
 30
0.0
 11
39.4712
 21
25.83
 31
0.0
  0
LINE
  8
0
 62
     0
 10
39.4712
 20
25.83
 30
0.0
 11
39.4712
 21
28.9292
 31
0.0
  0
LINE
  8
0
 62
     0
 10
39.4712
 20
28.9292
 30
0.0
 11
38.6704
 21
28.9292
 31
0.0
  0
LINE
  8
0
 62
     0
 10
38.6704
 20
28.9292
 30
0.0
 11
38.6704
 21
34.7293
 31
0.0
  0
LINE
  8
0
 62
     0
 10
38.6704
 20
34.7293
 30
0.0
 11
39.4712
 21
34.7293
 31
0.0
  0
LINE
  8
0
 62
     0
 10
39.4712
 20
34.7293
 30
0.0
 11
39.4712
 21
37.8298
 31
0.0
  0
LINE
  8
0
 62
     0
 10
39.4712
 20
37.8298
 30
0.0
 11
38.6704
 21
37.8298
 31
0.0
  0
LINE
  8
0
 62
     0
 10
38.6704
 20
37.8298
 30
0.0
 11
38.6704
 21
38.8288
 31
0.0
  0
LINE
  8
0
 62
     0
 10
38.6704
 20
38.8288
 30
0.0
 11
24.671
 21
38.8288
 31
0.0
  0
LINE
  8
0
 62
     0
 10
43.7212
 20
38.8288
 30
0.0
 11
43.7212
 21
37.8298
 31
0.0
  0
LINE
  8
0
 62
     0
 10
43.7212
 20
37.8298
 30
0.0
 11
42.9204
 21
37.8298
 31
0.0
  0
LINE
  8
0
 62
     0
 10
42.9204
 20
37.8298
 30
0.0
 11
42.9204
 21
34.7293
 31
0.0
  0
LINE
  8
0
 62
     0
 10
42.9204
 20
34.7293
 30
0.0
 11
43.7212
 21
34.7293
 31
0.0
  0
LINE
  8
0
 62
     0
 10
43.7212
 20
34.7293
 30
0.0
 11
43.7212
 21
28.9292
 31
0.0
  0
LINE
  8
0
 62
     0
 10
43.7212
 20
28.9292
 30
0.0
 11
42.9204
 21
28.9292
 31
0.0
  0
LINE
  8
0
 62
     0
 10
42.9204
 20
28.9292
 30
0.0
 11
42.9204
 21
25.83
 31
0.0
  0
LINE
  8
0
 62
     0
 10
42.9204
 20
25.83
 30
0.0
 11
43.7212
 21
25.83
 31
0.0
  0
LINE
  8
0
 62
     0
 10
43.7212
 20
25.83
 30
0.0
 11
43.7212
 21
24.8295
 31
0.0
  0
LINE
  8
0
 62
     0
 10
43.7212
 20
24.8295
 30
0.0
 11
57.7204
 21
24.8295
 31
0.0
  0
LINE
  8
0
 62
     0
 10
57.7204
 20
24.8295
 30
0.0
 11
57.7204
 21
25.83
 31
0.0
  0
LINE
  8
0
 62
     0
 10
57.7204
 20
25.83
 30
0.0
 11
58.5212
 21
25.83
 31
0.0
  0
LINE
  8
0
 62
     0
 10
58.5212
 20
25.83
 30
0.0
 11
58.5212
 21
28.9292
 31
0.0
  0
LINE
  8
0
 62
     0
 10
58.5212
 20
28.9292
 30
0.0
 11
57.7204
 21
28.9292
 31
0.0
  0
LINE
  8
0
 62
     0
 10
57.7204
 20
28.9292
 30
0.0
 11
57.7204
 21
34.7293
 31
0.0
  0
LINE
  8
0
 62
     0
 10
57.7204
 20
34.7293
 30
0.0
 11
58.5212
 21
34.7293
 31
0.0
  0
LINE
  8
0
 62
     0
 10
58.5212
 20
34.7293
 30
0.0
 11
58.5212
 21
37.8298
 31
0.0
  0
LINE
  8
0
 62
     0
 10
58.5212
 20
37.8298
 30
0.0
 11
57.7204
 21
37.8298
 31
0.0
  0
LINE
  8
0
 62
     0
 10
57.7204
 20
37.8298
 30
0.0
 11
57.7204
 21
38.8288
 31
0.0
  0
LINE
  8
0
 62
     0
 10
57.7204
 20
38.8288
 30
0.0
 11
43.7212
 21
38.8288
 31
0.0
  0
LINE
  8
0
 62
     0
 10
62.7712
 20
38.8288
 30
0.0
 11
62.7712
 21
37.8298
 31
0.0
  0
LINE
  8
0
 62
     0
 10
62.7712
 20
37.8298
 30
0.0
 11
61.9704
 21
37.8298
 31
0.0
  0
LINE
  8
0
 62
     0
 10
61.9704
 20
37.8298
 30
0.0
 11
61.9704
 21
34.7293
 31
0.0
  0
LINE
  8
0
 62
     0
 10
61.9704
 20
34.7293
 30
0.0
 11
62.7712
 21
34.7293
 31
0.0
  0
LINE
  8
0
 62
     0
 10
62.7712
 20
34.7293
 30
0.0
 11
62.7712
 21
28.9292
 31
0.0
  0
LINE
  8
0
 62
     0
 10
62.7712
 20
28.9292
 30
0.0
 11
61.9704
 21
28.9292
 31
0.0
  0
LINE
  8
0
 62
     0
 10
61.9704
 20
28.9292
 30
0.0
 11
61.9704
 21
25.83
 31
0.0
  0
LINE
  8
0
 62
     0
 10
61.9704
 20
25.83
 30
0.0
 11
62.7712
 21
25.83
 31
0.0
  0
LINE
  8
0
 62
     0
 10
62.7712
 20
25.83
 30
0.0
 11
62.7712
 21
24.8295
 31
0.0
  0
LINE
  8
0
 62
     0
 10
62.7712
 20
24.8295
 30
0.0
 11
76.7704
 21
24.8295
 31
0.0
  0
LINE
  8
0
 62
     0
 10
76.7704
 20
24.8295
 30
0.0
 11
76.7704
 21
25.83
 31
0.0
  0
LINE
  8
0
 62
     0
 10
76.7704
 20
25.83
 30
0.0
 11
77.5712
 21
25.83
 31
0.0
  0
LINE
  8
0
 62
     0
 10
77.5712
 20
25.83
 30
0.0
 11
77.5712
 21
28.9292
 31
0.0
  0
LINE
  8
0
 62
     0
 10
77.5712
 20
28.9292
 30
0.0
 11
76.7704
 21
28.9292
 31
0.0
  0
LINE
  8
0
 62
     0
 10
76.7704
 20
28.9292
 30
0.0
 11
76.7704
 21
34.7293
 31
0.0
  0
LINE
  8
0
 62
     0
 10
76.7704
 20
34.7293
 30
0.0
 11
77.5712
 21
34.7293
 31
0.0
  0
LINE
  8
0
 62
     0
 10
77.5712
 20
34.7293
 30
0.0
 11
77.5712
 21
37.8298
 31
0.0
  0
LINE
  8
0
 62
     0
 10
77.5712
 20
37.8298
 30
0.0
 11
76.7704
 21
37.8298
 31
0.0
  0
LINE
  8
0
 62
     0
 10
76.7704
 20
37.8298
 30
0.0
 11
76.7704
 21
38.8288
 31
0.0
  0
LINE
  8
0
 62
     0
 10
76.7704
 20
38.8288
 30
0.0
 11
62.7712
 21
38.8288
 31
0.0
  0
LINE
  8
0
 62
     0
 10
81.8212
 20
38.8288
 30
0.0
 11
81.8212
 21
37.8298
 31
0.0
  0
LINE
  8
0
 62
     0
 10
81.8212
 20
37.8298
 30
0.0
 11
81.0204
 21
37.8298
 31
0.0
  0
LINE
  8
0
 62
     0
 10
81.0204
 20
37.8298
 30
0.0
 11
81.0204
 21
34.7293
 31
0.0
  0
LINE
  8
0
 62
     0
 10
81.0204
 20
34.7293
 30
0.0
 11
81.8212
 21
34.7293
 31
0.0
  0
LINE
  8
0
 62
     0
 10
81.8212
 20
34.7293
 30
0.0
 11
81.8212
 21
28.9292
 31
0.0
  0
LINE
  8
0
 62
     0
 10
81.8212
 20
28.9292
 30
0.0
 11
81.0204
 21
28.9292
 31
0.0
  0
LINE
  8
0
 62
     0
 10
81.0204
 20
28.9292
 30
0.0
 11
81.0204
 21
25.83
 31
0.0
  0
LINE
  8
0
 62
     0
 10
81.0204
 20
25.83
 30
0.0
 11
81.8212
 21
25.83
 31
0.0
  0
LINE
  8
0
 62
     0
 10
81.8212
 20
25.83
 30
0.0
 11
81.8212
 21
24.8295
 31
0.0
  0
LINE
  8
0
 62
     0
 10
81.8212
 20
24.8295
 30
0.0
 11
95.8204
 21
24.8295
 31
0.0
  0
LINE
  8
0
 62
     0
 10
95.8204
 20
24.8295
 30
0.0
 11
95.8204
 21
25.83
 31
0.0
  0
LINE
  8
0
 62
     0
 10
95.8204
 20
25.83
 30
0.0
 11
96.6198
 21
25.83
 31
0.0
  0
LINE
  8
0
 62
     0
 10
96.6198
 20
25.83
 30
0.0
 11
96.6198
 21
28.9292
 31
0.0
  0
LINE
  8
0
 62
     0
 10
96.6198
 20
28.9292
 30
0.0
 11
95.8204
 21
28.9292
 31
0.0
  0
LINE
  8
0
 62
     0
 10
95.8204
 20
28.9292
 30
0.0
 11
95.8204
 21
34.7293
 31
0.0
  0
LINE
  8
0
 62
     0
 10
95.8204
 20
34.7293
 30
0.0
 11
96.6198
 21
34.7293
 31
0.0
  0
LINE
  8
0
 62
     0
 10
96.6198
 20
34.7293
 30
0.0
 11
96.6198
 21
37.8298
 31
0.0
  0
LINE
  8
0
 62
     0
 10
96.6198
 20
37.8298
 30
0.0
 11
95.8204
 21
37.8298
 31
0.0
  0
LINE
  8
0
 62
     0
 10
95.8204
 20
37.8298
 30
0.0
 11
95.8204
 21
38.8288
 31
0.0
  0
LINE
  8
0
 62
     0
 10
95.8204
 20
38.8288
 30
0.0
 11
81.8212
 21
38.8288
 31
0.0
  0
LINE
  8
0
 62
     0
 10
100.87
 20
38.8288
 30
0.0
 11
100.87
 21
37.8298
 31
0.0
  0
LINE
  8
0
 62
     0
 10
100.87
 20
37.8298
 30
0.0
 11
100.07
 21
37.8298
 31
0.0
  0
LINE
  8
0
 62
     0
 10
100.07
 20
37.8298
 30
0.0
 11
100.07
 21
34.7293
 31
0.0
  0
LINE
  8
0
 62
     0
 10
100.07
 20
34.7293
 30
0.0
 11
100.87
 21
34.7293
 31
0.0
  0
LINE
  8
0
 62
     0
 10
100.87
 20
34.7293
 30
0.0
 11
100.87
 21
28.9292
 31
0.0
  0
LINE
  8
0
 62
     0
 10
100.87
 20
28.9292
 30
0.0
 11
100.07
 21
28.9292
 31
0.0
  0
LINE
  8
0
 62
     0
 10
100.07
 20
28.9292
 30
0.0
 11
100.07
 21
25.83
 31
0.0
  0
LINE
  8
0
 62
     0
 10
100.07
 20
25.83
 30
0.0
 11
100.87
 21
25.83
 31
0.0
  0
LINE
  8
0
 62
     0
 10
100.87
 20
25.83
 30
0.0
 11
100.87
 21
24.8295
 31
0.0
  0
LINE
  8
0
 62
     0
 10
100.87
 20
24.8295
 30
0.0
 11
114.869
 21
24.8295
 31
0.0
  0
LINE
  8
0
 62
     0
 10
114.869
 20
24.8295
 30
0.0
 11
114.869
 21
25.83
 31
0.0
  0
LINE
  8
0
 62
     0
 10
114.869
 20
25.83
 30
0.0
 11
115.67
 21
25.83
 31
0.0
  0
LINE
  8
0
 62
     0
 10
115.67
 20
25.83
 30
0.0
 11
115.67
 21
28.9292
 31
0.0
  0
LINE
  8
0
 62
     0
 10
115.67
 20
28.9292
 30
0.0
 11
114.869
 21
28.9292
 31
0.0
  0
LINE
  8
0
 62
     0
 10
114.869
 20
28.9292
 30
0.0
 11
114.869
 21
34.7293
 31
0.0
  0
LINE
  8
0
 62
     0
 10
114.869
 20
34.7293
 30
0.0
 11
115.67
 21
34.7293
 31
0.0
  0
LINE
  8
0
 62
     0
 10
115.67
 20
34.7293
 30
0.0
 11
115.67
 21
37.8298
 31
0.0
  0
LINE
  8
0
 62
     0
 10
115.67
 20
37.8298
 30
0.0
 11
114.869
 21
37.8298
 31
0.0
  0
LINE
  8
0
 62
     0
 10
114.869
 20
37.8298
 30
0.0
 11
114.869
 21
38.8288
 31
0.0
  0
LINE
  8
0
 62
     0
 10
114.869
 20
38.8288
 30
0.0
 11
100.87
 21
38.8288
 31
0.0
  0
LINE
  8
0
 62
     0
 10
5.61964
 20
57.8788
 30
0.0
 11
5.61964
 21
56.8798
 31
0.0
  0
LINE
  8
0
 62
     0
 10
5.61964
 20
56.8798
 30
0.0
 11
4.81902
 21
56.8798
 31
0.0
  0
LINE
  8
0
 62
     0
 10
4.81902
 20
56.8798
 30
0.0
 11
4.81902
 21
53.7792
 31
0.0
  0
LINE
  8
0
 62
     0
 10
4.81902
 20
53.7792
 30
0.0
 11
5.61964
 21
53.7792
 31
0.0
  0
LINE
  8
0
 62
     0
 10
5.61964
 20
53.7792
 30
0.0
 11
5.61964
 21
47.9792
 31
0.0
  0
LINE
  8
0
 62
     0
 10
5.61964
 20
47.9792
 30
0.0
 11
4.81902
 21
47.9792
 31
0.0
  0
LINE
  8
0
 62
     0
 10
4.81902
 20
47.9792
 30
0.0
 11
4.81902
 21
44.88
 31
0.0
  0
LINE
  8
0
 62
     0
 10
4.81902
 20
44.88
 30
0.0
 11
5.61964
 21
44.88
 31
0.0
  0
LINE
  8
0
 62
     0
 10
5.61964
 20
44.88
 30
0.0
 11
5.61964
 21
43.8796
 31
0.0
  0
LINE
  8
0
 62
     0
 10
5.61964
 20
43.8796
 30
0.0
 11
19.6205
 21
43.8796
 31
0.0
  0
LINE
  8
0
 62
     0
 10
19.6205
 20
43.8796
 30
0.0
 11
19.6205
 21
44.88
 31
0.0
  0
LINE
  8
0
 62
     0
 10
19.6205
 20
44.88
 30
0.0
 11
20.4211
 21
44.88
 31
0.0
  0
LINE
  8
0
 62
     0
 10
20.4211
 20
44.88
 30
0.0
 11
20.4211
 21
47.9792
 31
0.0
  0
LINE
  8
0
 62
     0
 10
20.4211
 20
47.9792
 30
0.0
 11
19.6205
 21
47.9792
 31
0.0
  0
LINE
  8
0
 62
     0
 10
19.6205
 20
47.9792
 30
0.0
 11
19.6205
 21
53.7792
 31
0.0
  0
LINE
  8
0
 62
     0
 10
19.6205
 20
53.7792
 30
0.0
 11
20.4211
 21
53.7792
 31
0.0
  0
LINE
  8
0
 62
     0
 10
20.4211
 20
53.7792
 30
0.0
 11
20.4211
 21
56.8798
 31
0.0
  0
LINE
  8
0
 62
     0
 10
20.4211
 20
56.8798
 30
0.0
 11
19.6205
 21
56.8798
 31
0.0
  0
LINE
  8
0
 62
     0
 10
19.6205
 20
56.8798
 30
0.0
 11
19.6205
 21
57.8788
 31
0.0
  0
LINE
  8
0
 62
     0
 10
19.6205
 20
57.8788
 30
0.0
 11
5.61964
 21
57.8788
 31
0.0
  0
LINE
  8
0
 62
     0
 10
24.671
 20
57.8788
 30
0.0
 11
24.671
 21
56.8798
 31
0.0
  0
LINE
  8
0
 62
     0
 10
24.671
 20
56.8798
 30
0.0
 11
23.8704
 21
56.8798
 31
0.0
  0
LINE
  8
0
 62
     0
 10
23.8704
 20
56.8798
 30
0.0
 11
23.8704
 21
53.7792
 31
0.0
  0
LINE
  8
0
 62
     0
 10
23.8704
 20
53.7792
 30
0.0
 11
24.671
 21
53.7792
 31
0.0
  0
LINE
  8
0
 62
     0
 10
24.671
 20
53.7792
 30
0.0
 11
24.671
 21
47.9792
 31
0.0
  0
LINE
  8
0
 62
     0
 10
24.671
 20
47.9792
 30
0.0
 11
23.8704
 21
47.9792
 31
0.0
  0
LINE
  8
0
 62
     0
 10
23.8704
 20
47.9792
 30
0.0
 11
23.8704
 21
44.88
 31
0.0
  0
LINE
  8
0
 62
     0
 10
23.8704
 20
44.88
 30
0.0
 11
24.671
 21
44.88
 31
0.0
  0
LINE
  8
0
 62
     0
 10
24.671
 20
44.88
 30
0.0
 11
24.671
 21
43.8796
 31
0.0
  0
LINE
  8
0
 62
     0
 10
24.671
 20
43.8796
 30
0.0
 11
38.6704
 21
43.8796
 31
0.0
  0
LINE
  8
0
 62
     0
 10
38.6704
 20
43.8796
 30
0.0
 11
38.6704
 21
44.88
 31
0.0
  0
LINE
  8
0
 62
     0
 10
38.6704
 20
44.88
 30
0.0
 11
39.4712
 21
44.88
 31
0.0
  0
LINE
  8
0
 62
     0
 10
39.4712
 20
44.88
 30
0.0
 11
39.4712
 21
47.9792
 31
0.0
  0
LINE
  8
0
 62
     0
 10
39.4712
 20
47.9792
 30
0.0
 11
38.6704
 21
47.9792
 31
0.0
  0
LINE
  8
0
 62
     0
 10
38.6704
 20
47.9792
 30
0.0
 11
38.6704
 21
53.7792
 31
0.0
  0
LINE
  8
0
 62
     0
 10
38.6704
 20
53.7792
 30
0.0
 11
39.4712
 21
53.7792
 31
0.0
  0
LINE
  8
0
 62
     0
 10
39.4712
 20
53.7792
 30
0.0
 11
39.4712
 21
56.8798
 31
0.0
  0
LINE
  8
0
 62
     0
 10
39.4712
 20
56.8798
 30
0.0
 11
38.6704
 21
56.8798
 31
0.0
  0
LINE
  8
0
 62
     0
 10
38.6704
 20
56.8798
 30
0.0
 11
38.6704
 21
57.8788
 31
0.0
  0
LINE
  8
0
 62
     0
 10
38.6704
 20
57.8788
 30
0.0
 11
24.671
 21
57.8788
 31
0.0
  0
LINE
  8
0
 62
     0
 10
43.7212
 20
57.8788
 30
0.0
 11
43.7212
 21
56.8798
 31
0.0
  0
LINE
  8
0
 62
     0
 10
43.7212
 20
56.8798
 30
0.0
 11
42.9204
 21
56.8798
 31
0.0
  0
LINE
  8
0
 62
     0
 10
42.9204
 20
56.8798
 30
0.0
 11
42.9204
 21
53.7792
 31
0.0
  0
LINE
  8
0
 62
     0
 10
42.9204
 20
53.7792
 30
0.0
 11
43.7212
 21
53.7792
 31
0.0
  0
LINE
  8
0
 62
     0
 10
43.7212
 20
53.7792
 30
0.0
 11
43.7212
 21
47.9792
 31
0.0
  0
LINE
  8
0
 62
     0
 10
43.7212
 20
47.9792
 30
0.0
 11
42.9204
 21
47.9792
 31
0.0
  0
LINE
  8
0
 62
     0
 10
42.9204
 20
47.9792
 30
0.0
 11
42.9204
 21
44.88
 31
0.0
  0
LINE
  8
0
 62
     0
 10
42.9204
 20
44.88
 30
0.0
 11
43.7212
 21
44.88
 31
0.0
  0
LINE
  8
0
 62
     0
 10
43.7212
 20
44.88
 30
0.0
 11
43.7212
 21
43.8796
 31
0.0
  0
LINE
  8
0
 62
     0
 10
43.7212
 20
43.8796
 30
0.0
 11
57.7204
 21
43.8796
 31
0.0
  0
LINE
  8
0
 62
     0
 10
57.7204
 20
43.8796
 30
0.0
 11
57.7204
 21
44.88
 31
0.0
  0
LINE
  8
0
 62
     0
 10
57.7204
 20
44.88
 30
0.0
 11
58.5212
 21
44.88
 31
0.0
  0
LINE
  8
0
 62
     0
 10
58.5212
 20
44.88
 30
0.0
 11
58.5212
 21
47.9792
 31
0.0
  0
LINE
  8
0
 62
     0
 10
58.5212
 20
47.9792
 30
0.0
 11
57.7204
 21
47.9792
 31
0.0
  0
LINE
  8
0
 62
     0
 10
57.7204
 20
47.9792
 30
0.0
 11
57.7204
 21
53.7792
 31
0.0
  0
LINE
  8
0
 62
     0
 10
57.7204
 20
53.7792
 30
0.0
 11
58.5212
 21
53.7792
 31
0.0
  0
LINE
  8
0
 62
     0
 10
58.5212
 20
53.7792
 30
0.0
 11
58.5212
 21
56.8798
 31
0.0
  0
LINE
  8
0
 62
     0
 10
58.5212
 20
56.8798
 30
0.0
 11
57.7204
 21
56.8798
 31
0.0
  0
LINE
  8
0
 62
     0
 10
57.7204
 20
56.8798
 30
0.0
 11
57.7204
 21
57.8788
 31
0.0
  0
LINE
  8
0
 62
     0
 10
57.7204
 20
57.8788
 30
0.0
 11
43.7212
 21
57.8788
 31
0.0
  0
LINE
  8
0
 62
     0
 10
62.7712
 20
57.8788
 30
0.0
 11
62.7712
 21
56.8798
 31
0.0
  0
LINE
  8
0
 62
     0
 10
62.7712
 20
56.8798
 30
0.0
 11
61.9704
 21
56.8798
 31
0.0
  0
LINE
  8
0
 62
     0
 10
61.9704
 20
56.8798
 30
0.0
 11
61.9704
 21
53.7792
 31
0.0
  0
LINE
  8
0
 62
     0
 10
61.9704
 20
53.7792
 30
0.0
 11
62.7712
 21
53.7792
 31
0.0
  0
LINE
  8
0
 62
     0
 10
62.7712
 20
53.7792
 30
0.0
 11
62.7712
 21
47.9792
 31
0.0
  0
LINE
  8
0
 62
     0
 10
62.7712
 20
47.9792
 30
0.0
 11
61.9704
 21
47.9792
 31
0.0
  0
LINE
  8
0
 62
     0
 10
61.9704
 20
47.9792
 30
0.0
 11
61.9704
 21
44.88
 31
0.0
  0
LINE
  8
0
 62
     0
 10
61.9704
 20
44.88
 30
0.0
 11
62.7712
 21
44.88
 31
0.0
  0
LINE
  8
0
 62
     0
 10
62.7712
 20
44.88
 30
0.0
 11
62.7712
 21
43.8796
 31
0.0
  0
LINE
  8
0
 62
     0
 10
62.7712
 20
43.8796
 30
0.0
 11
76.7704
 21
43.8796
 31
0.0
  0
LINE
  8
0
 62
     0
 10
76.7704
 20
43.8796
 30
0.0
 11
76.7704
 21
44.88
 31
0.0
  0
LINE
  8
0
 62
     0
 10
76.7704
 20
44.88
 30
0.0
 11
77.5712
 21
44.88
 31
0.0
  0
LINE
  8
0
 62
     0
 10
77.5712
 20
44.88
 30
0.0
 11
77.5712
 21
47.9792
 31
0.0
  0
LINE
  8
0
 62
     0
 10
77.5712
 20
47.9792
 30
0.0
 11
76.7704
 21
47.9792
 31
0.0
  0
LINE
  8
0
 62
     0
 10
76.7704
 20
47.9792
 30
0.0
 11
76.7704
 21
53.7792
 31
0.0
  0
LINE
  8
0
 62
     0
 10
76.7704
 20
53.7792
 30
0.0
 11
77.5712
 21
53.7792
 31
0.0
  0
LINE
  8
0
 62
     0
 10
77.5712
 20
53.7792
 30
0.0
 11
77.5712
 21
56.8798
 31
0.0
  0
LINE
  8
0
 62
     0
 10
77.5712
 20
56.8798
 30
0.0
 11
76.7704
 21
56.8798
 31
0.0
  0
LINE
  8
0
 62
     0
 10
76.7704
 20
56.8798
 30
0.0
 11
76.7704
 21
57.8788
 31
0.0
  0
LINE
  8
0
 62
     0
 10
76.7704
 20
57.8788
 30
0.0
 11
62.7712
 21
57.8788
 31
0.0
  0
LINE
  8
0
 62
     0
 10
81.8212
 20
57.8788
 30
0.0
 11
81.8212
 21
56.8798
 31
0.0
  0
LINE
  8
0
 62
     0
 10
81.8212
 20
56.8798
 30
0.0
 11
81.0204
 21
56.8798
 31
0.0
  0
LINE
  8
0
 62
     0
 10
81.0204
 20
56.8798
 30
0.0
 11
81.0204
 21
53.7792
 31
0.0
  0
LINE
  8
0
 62
     0
 10
81.0204
 20
53.7792
 30
0.0
 11
81.8212
 21
53.7792
 31
0.0
  0
LINE
  8
0
 62
     0
 10
81.8212
 20
53.7792
 30
0.0
 11
81.8212
 21
47.9792
 31
0.0
  0
LINE
  8
0
 62
     0
 10
81.8212
 20
47.9792
 30
0.0
 11
81.0204
 21
47.9792
 31
0.0
  0
LINE
  8
0
 62
     0
 10
81.0204
 20
47.9792
 30
0.0
 11
81.0204
 21
44.88
 31
0.0
  0
LINE
  8
0
 62
     0
 10
81.0204
 20
44.88
 30
0.0
 11
81.8212
 21
44.88
 31
0.0
  0
LINE
  8
0
 62
     0
 10
81.8212
 20
44.88
 30
0.0
 11
81.8212
 21
43.8796
 31
0.0
  0
LINE
  8
0
 62
     0
 10
81.8212
 20
43.8796
 30
0.0
 11
95.8204
 21
43.8796
 31
0.0
  0
LINE
  8
0
 62
     0
 10
95.8204
 20
43.8796
 30
0.0
 11
95.8204
 21
44.88
 31
0.0
  0
LINE
  8
0
 62
     0
 10
95.8204
 20
44.88
 30
0.0
 11
96.6198
 21
44.88
 31
0.0
  0
LINE
  8
0
 62
     0
 10
96.6198
 20
44.88
 30
0.0
 11
96.6198
 21
47.9792
 31
0.0
  0
LINE
  8
0
 62
     0
 10
96.6198
 20
47.9792
 30
0.0
 11
95.8204
 21
47.9792
 31
0.0
  0
LINE
  8
0
 62
     0
 10
95.8204
 20
47.9792
 30
0.0
 11
95.8204
 21
53.7792
 31
0.0
  0
LINE
  8
0
 62
     0
 10
95.8204
 20
53.7792
 30
0.0
 11
96.6198
 21
53.7792
 31
0.0
  0
LINE
  8
0
 62
     0
 10
96.6198
 20
53.7792
 30
0.0
 11
96.6198
 21
56.8798
 31
0.0
  0
LINE
  8
0
 62
     0
 10
96.6198
 20
56.8798
 30
0.0
 11
95.8204
 21
56.8798
 31
0.0
  0
LINE
  8
0
 62
     0
 10
95.8204
 20
56.8798
 30
0.0
 11
95.8204
 21
57.8788
 31
0.0
  0
LINE
  8
0
 62
     0
 10
95.8204
 20
57.8788
 30
0.0
 11
81.8212
 21
57.8788
 31
0.0
  0
LINE
  8
0
 62
     0
 10
100.87
 20
57.8788
 30
0.0
 11
100.87
 21
56.8798
 31
0.0
  0
LINE
  8
0
 62
     0
 10
100.87
 20
56.8798
 30
0.0
 11
100.07
 21
56.8798
 31
0.0
  0
LINE
  8
0
 62
     0
 10
100.07
 20
56.8798
 30
0.0
 11
100.07
 21
53.7792
 31
0.0
  0
LINE
  8
0
 62
     0
 10
100.07
 20
53.7792
 30
0.0
 11
100.87
 21
53.7792
 31
0.0
  0
LINE
  8
0
 62
     0
 10
100.87
 20
53.7792
 30
0.0
 11
100.87
 21
47.9792
 31
0.0
  0
LINE
  8
0
 62
     0
 10
100.87
 20
47.9792
 30
0.0
 11
100.07
 21
47.9792
 31
0.0
  0
LINE
  8
0
 62
     0
 10
100.07
 20
47.9792
 30
0.0
 11
100.07
 21
44.88
 31
0.0
  0
LINE
  8
0
 62
     0
 10
100.07
 20
44.88
 30
0.0
 11
100.87
 21
44.88
 31
0.0
  0
LINE
  8
0
 62
     0
 10
100.87
 20
44.88
 30
0.0
 11
100.87
 21
43.8796
 31
0.0
  0
LINE
  8
0
 62
     0
 10
100.87
 20
43.8796
 30
0.0
 11
114.869
 21
43.8796
 31
0.0
  0
LINE
  8
0
 62
     0
 10
114.869
 20
43.8796
 30
0.0
 11
114.869
 21
44.88
 31
0.0
  0
LINE
  8
0
 62
     0
 10
114.869
 20
44.88
 30
0.0
 11
115.67
 21
44.88
 31
0.0
  0
LINE
  8
0
 62
     0
 10
115.67
 20
44.88
 30
0.0
 11
115.67
 21
47.9792
 31
0.0
  0
LINE
  8
0
 62
     0
 10
115.67
 20
47.9792
 30
0.0
 11
114.869
 21
47.9792
 31
0.0
  0
LINE
  8
0
 62
     0
 10
114.869
 20
47.9792
 30
0.0
 11
114.869
 21
53.7792
 31
0.0
  0
LINE
  8
0
 62
     0
 10
114.869
 20
53.7792
 30
0.0
 11
115.67
 21
53.7792
 31
0.0
  0
LINE
  8
0
 62
     0
 10
115.67
 20
53.7792
 30
0.0
 11
115.67
 21
56.8798
 31
0.0
  0
LINE
  8
0
 62
     0
 10
115.67
 20
56.8798
 30
0.0
 11
114.869
 21
56.8798
 31
0.0
  0
LINE
  8
0
 62
     0
 10
114.869
 20
56.8798
 30
0.0
 11
114.869
 21
57.8788
 31
0.0
  0
LINE
  8
0
 62
     0
 10
114.869
 20
57.8788
 30
0.0
 11
100.87
 21
57.8788
 31
0.0
  0
LINE
  8
0
 62
     0
 10
5.61964
 20
76.9303
 30
0.0
 11
5.61964
 21
75.9298
 31
0.0
  0
LINE
  8
0
 62
     0
 10
5.61964
 20
75.9298
 30
0.0
 11
4.81902
 21
75.9298
 31
0.0
  0
LINE
  8
0
 62
     0
 10
4.81902
 20
75.9298
 30
0.0
 11
4.81902
 21
72.8306
 31
0.0
  0
LINE
  8
0
 62
     0
 10
4.81902
 20
72.8306
 30
0.0
 11
5.61964
 21
72.8306
 31
0.0
  0
LINE
  8
0
 62
     0
 10
5.61964
 20
72.8306
 30
0.0
 11
5.61964
 21
67.0306
 31
0.0
  0
LINE
  8
0
 62
     0
 10
5.61964
 20
67.0306
 30
0.0
 11
4.81902
 21
67.0306
 31
0.0
  0
LINE
  8
0
 62
     0
 10
4.81902
 20
67.0306
 30
0.0
 11
4.81902
 21
63.93
 31
0.0
  0
LINE
  8
0
 62
     0
 10
4.81902
 20
63.93
 30
0.0
 11
5.61964
 21
63.93
 31
0.0
  0
LINE
  8
0
 62
     0
 10
5.61964
 20
63.93
 30
0.0
 11
5.61964
 21
62.9296
 31
0.0
  0
LINE
  8
0
 62
     0
 10
5.61964
 20
62.9296
 30
0.0
 11
19.6205
 21
62.9296
 31
0.0
  0
LINE
  8
0
 62
     0
 10
19.6205
 20
62.9296
 30
0.0
 11
19.6205
 21
63.93
 31
0.0
  0
LINE
  8
0
 62
     0
 10
19.6205
 20
63.93
 30
0.0
 11
20.4211
 21
63.93
 31
0.0
  0
LINE
  8
0
 62
     0
 10
20.4211
 20
63.93
 30
0.0
 11
20.4211
 21
67.0306
 31
0.0
  0
LINE
  8
0
 62
     0
 10
20.4211
 20
67.0306
 30
0.0
 11
19.6205
 21
67.0306
 31
0.0
  0
LINE
  8
0
 62
     0
 10
19.6205
 20
67.0306
 30
0.0
 11
19.6205
 21
72.8306
 31
0.0
  0
LINE
  8
0
 62
     0
 10
19.6205
 20
72.8306
 30
0.0
 11
20.4211
 21
72.8306
 31
0.0
  0
LINE
  8
0
 62
     0
 10
20.4211
 20
72.8306
 30
0.0
 11
20.4211
 21
75.9298
 31
0.0
  0
LINE
  8
0
 62
     0
 10
20.4211
 20
75.9298
 30
0.0
 11
19.6205
 21
75.9298
 31
0.0
  0
LINE
  8
0
 62
     0
 10
19.6205
 20
75.9298
 30
0.0
 11
19.6205
 21
76.9303
 31
0.0
  0
LINE
  8
0
 62
     0
 10
19.6205
 20
76.9303
 30
0.0
 11
5.61964
 21
76.9303
 31
0.0
  0
LINE
  8
0
 62
     0
 10
24.671
 20
76.9303
 30
0.0
 11
24.671
 21
75.9298
 31
0.0
  0
LINE
  8
0
 62
     0
 10
24.671
 20
75.9298
 30
0.0
 11
23.8704
 21
75.9298
 31
0.0
  0
LINE
  8
0
 62
     0
 10
23.8704
 20
75.9298
 30
0.0
 11
23.8704
 21
72.8306
 31
0.0
  0
LINE
  8
0
 62
     0
 10
23.8704
 20
72.8306
 30
0.0
 11
24.671
 21
72.8306
 31
0.0
  0
LINE
  8
0
 62
     0
 10
24.671
 20
72.8306
 30
0.0
 11
24.671
 21
67.0306
 31
0.0
  0
LINE
  8
0
 62
     0
 10
24.671
 20
67.0306
 30
0.0
 11
23.8704
 21
67.0306
 31
0.0
  0
LINE
  8
0
 62
     0
 10
23.8704
 20
67.0306
 30
0.0
 11
23.8704
 21
63.93
 31
0.0
  0
LINE
  8
0
 62
     0
 10
23.8704
 20
63.93
 30
0.0
 11
24.671
 21
63.93
 31
0.0
  0
LINE
  8
0
 62
     0
 10
24.671
 20
63.93
 30
0.0
 11
24.671
 21
62.9296
 31
0.0
  0
LINE
  8
0
 62
     0
 10
24.671
 20
62.9296
 30
0.0
 11
38.6704
 21
62.9296
 31
0.0
  0
LINE
  8
0
 62
     0
 10
38.6704
 20
62.9296
 30
0.0
 11
38.6704
 21
63.93
 31
0.0
  0
LINE
  8
0
 62
     0
 10
38.6704
 20
63.93
 30
0.0
 11
39.4712
 21
63.93
 31
0.0
  0
LINE
  8
0
 62
     0
 10
39.4712
 20
63.93
 30
0.0
 11
39.4712
 21
67.0306
 31
0.0
  0
LINE
  8
0
 62
     0
 10
39.4712
 20
67.0306
 30
0.0
 11
38.6704
 21
67.0306
 31
0.0
  0
LINE
  8
0
 62
     0
 10
38.6704
 20
67.0306
 30
0.0
 11
38.6704
 21
72.8306
 31
0.0
  0
LINE
  8
0
 62
     0
 10
38.6704
 20
72.8306
 30
0.0
 11
39.4712
 21
72.8306
 31
0.0
  0
LINE
  8
0
 62
     0
 10
39.4712
 20
72.8306
 30
0.0
 11
39.4712
 21
75.9298
 31
0.0
  0
LINE
  8
0
 62
     0
 10
39.4712
 20
75.9298
 30
0.0
 11
38.6704
 21
75.9298
 31
0.0
  0
LINE
  8
0
 62
     0
 10
38.6704
 20
75.9298
 30
0.0
 11
38.6704
 21
76.9303
 31
0.0
  0
LINE
  8
0
 62
     0
 10
38.6704
 20
76.9303
 30
0.0
 11
24.671
 21
76.9303
 31
0.0
  0
LINE
  8
0
 62
     0
 10
43.7212
 20
76.9303
 30
0.0
 11
43.7212
 21
75.9298
 31
0.0
  0
LINE
  8
0
 62
     0
 10
43.7212
 20
75.9298
 30
0.0
 11
42.9204
 21
75.9298
 31
0.0
  0
LINE
  8
0
 62
     0
 10
42.9204
 20
75.9298
 30
0.0
 11
42.9204
 21
72.8306
 31
0.0
  0
LINE
  8
0
 62
     0
 10
42.9204
 20
72.8306
 30
0.0
 11
43.7212
 21
72.8306
 31
0.0
  0
LINE
  8
0
 62
     0
 10
43.7212
 20
72.8306
 30
0.0
 11
43.7212
 21
67.0306
 31
0.0
  0
LINE
  8
0
 62
     0
 10
43.7212
 20
67.0306
 30
0.0
 11
42.9204
 21
67.0306
 31
0.0
  0
LINE
  8
0
 62
     0
 10
42.9204
 20
67.0306
 30
0.0
 11
42.9204
 21
63.93
 31
0.0
  0
LINE
  8
0
 62
     0
 10
42.9204
 20
63.93
 30
0.0
 11
43.7212
 21
63.93
 31
0.0
  0
LINE
  8
0
 62
     0
 10
43.7212
 20
63.93
 30
0.0
 11
43.7212
 21
62.9296
 31
0.0
  0
LINE
  8
0
 62
     0
 10
43.7212
 20
62.9296
 30
0.0
 11
57.7204
 21
62.9296
 31
0.0
  0
LINE
  8
0
 62
     0
 10
57.7204
 20
62.9296
 30
0.0
 11
57.7204
 21
63.93
 31
0.0
  0
LINE
  8
0
 62
     0
 10
57.7204
 20
63.93
 30
0.0
 11
58.5212
 21
63.93
 31
0.0
  0
LINE
  8
0
 62
     0
 10
58.5212
 20
63.93
 30
0.0
 11
58.5212
 21
67.0306
 31
0.0
  0
LINE
  8
0
 62
     0
 10
58.5212
 20
67.0306
 30
0.0
 11
57.7204
 21
67.0306
 31
0.0
  0
LINE
  8
0
 62
     0
 10
57.7204
 20
67.0306
 30
0.0
 11
57.7204
 21
72.8306
 31
0.0
  0
LINE
  8
0
 62
     0
 10
57.7204
 20
72.8306
 30
0.0
 11
58.5212
 21
72.8306
 31
0.0
  0
LINE
  8
0
 62
     0
 10
58.5212
 20
72.8306
 30
0.0
 11
58.5212
 21
75.9298
 31
0.0
  0
LINE
  8
0
 62
     0
 10
58.5212
 20
75.9298
 30
0.0
 11
57.7204
 21
75.9298
 31
0.0
  0
LINE
  8
0
 62
     0
 10
57.7204
 20
75.9298
 30
0.0
 11
57.7204
 21
76.9303
 31
0.0
  0
LINE
  8
0
 62
     0
 10
57.7204
 20
76.9303
 30
0.0
 11
43.7212
 21
76.9303
 31
0.0
  0
LINE
  8
0
 62
     0
 10
62.7712
 20
76.9303
 30
0.0
 11
62.7712
 21
75.9298
 31
0.0
  0
LINE
  8
0
 62
     0
 10
62.7712
 20
75.9298
 30
0.0
 11
61.9704
 21
75.9298
 31
0.0
  0
LINE
  8
0
 62
     0
 10
61.9704
 20
75.9298
 30
0.0
 11
61.9704
 21
72.8306
 31
0.0
  0
LINE
  8
0
 62
     0
 10
61.9704
 20
72.8306
 30
0.0
 11
62.7712
 21
72.8306
 31
0.0
  0
LINE
  8
0
 62
     0
 10
62.7712
 20
72.8306
 30
0.0
 11
62.7712
 21
67.0306
 31
0.0
  0
LINE
  8
0
 62
     0
 10
62.7712
 20
67.0306
 30
0.0
 11
61.9704
 21
67.0306
 31
0.0
  0
LINE
  8
0
 62
     0
 10
61.9704
 20
67.0306
 30
0.0
 11
61.9704
 21
63.93
 31
0.0
  0
LINE
  8
0
 62
     0
 10
61.9704
 20
63.93
 30
0.0
 11
62.7712
 21
63.93
 31
0.0
  0
LINE
  8
0
 62
     0
 10
62.7712
 20
63.93
 30
0.0
 11
62.7712
 21
62.9296
 31
0.0
  0
LINE
  8
0
 62
     0
 10
62.7712
 20
62.9296
 30
0.0
 11
76.7704
 21
62.9296
 31
0.0
  0
LINE
  8
0
 62
     0
 10
76.7704
 20
62.9296
 30
0.0
 11
76.7704
 21
63.93
 31
0.0
  0
LINE
  8
0
 62
     0
 10
76.7704
 20
63.93
 30
0.0
 11
77.5712
 21
63.93
 31
0.0
  0
LINE
  8
0
 62
     0
 10
77.5712
 20
63.93
 30
0.0
 11
77.5712
 21
67.0306
 31
0.0
  0
LINE
  8
0
 62
     0
 10
77.5712
 20
67.0306
 30
0.0
 11
76.7704
 21
67.0306
 31
0.0
  0
LINE
  8
0
 62
     0
 10
76.7704
 20
67.0306
 30
0.0
 11
76.7704
 21
72.8306
 31
0.0
  0
LINE
  8
0
 62
     0
 10
76.7704
 20
72.8306
 30
0.0
 11
77.5712
 21
72.8306
 31
0.0
  0
LINE
  8
0
 62
     0
 10
77.5712
 20
72.8306
 30
0.0
 11
77.5712
 21
75.9298
 31
0.0
  0
LINE
  8
0
 62
     0
 10
77.5712
 20
75.9298
 30
0.0
 11
76.7704
 21
75.9298
 31
0.0
  0
LINE
  8
0
 62
     0
 10
76.7704
 20
75.9298
 30
0.0
 11
76.7704
 21
76.9303
 31
0.0
  0
LINE
  8
0
 62
     0
 10
76.7704
 20
76.9303
 30
0.0
 11
62.7712
 21
76.9303
 31
0.0
  0
LINE
  8
0
 62
     0
 10
81.8212
 20
76.9303
 30
0.0
 11
81.8212
 21
75.9298
 31
0.0
  0
LINE
  8
0
 62
     0
 10
81.8212
 20
75.9298
 30
0.0
 11
81.0204
 21
75.9298
 31
0.0
  0
LINE
  8
0
 62
     0
 10
81.0204
 20
75.9298
 30
0.0
 11
81.0204
 21
72.8306
 31
0.0
  0
LINE
  8
0
 62
     0
 10
81.0204
 20
72.8306
 30
0.0
 11
81.8212
 21
72.8306
 31
0.0
  0
LINE
  8
0
 62
     0
 10
81.8212
 20
72.8306
 30
0.0
 11
81.8212
 21
67.0306
 31
0.0
  0
LINE
  8
0
 62
     0
 10
81.8212
 20
67.0306
 30
0.0
 11
81.0204
 21
67.0306
 31
0.0
  0
LINE
  8
0
 62
     0
 10
81.0204
 20
67.0306
 30
0.0
 11
81.0204
 21
63.93
 31
0.0
  0
LINE
  8
0
 62
     0
 10
81.0204
 20
63.93
 30
0.0
 11
81.8212
 21
63.93
 31
0.0
  0
LINE
  8
0
 62
     0
 10
81.8212
 20
63.93
 30
0.0
 11
81.8212
 21
62.9296
 31
0.0
  0
LINE
  8
0
 62
     0
 10
81.8212
 20
62.9296
 30
0.0
 11
95.8204
 21
62.9296
 31
0.0
  0
LINE
  8
0
 62
     0
 10
95.8204
 20
62.9296
 30
0.0
 11
95.8204
 21
63.93
 31
0.0
  0
LINE
  8
0
 62
     0
 10
95.8204
 20
63.93
 30
0.0
 11
96.6198
 21
63.93
 31
0.0
  0
LINE
  8
0
 62
     0
 10
96.6198
 20
63.93
 30
0.0
 11
96.6198
 21
67.0306
 31
0.0
  0
LINE
  8
0
 62
     0
 10
96.6198
 20
67.0306
 30
0.0
 11
95.8204
 21
67.0306
 31
0.0
  0
LINE
  8
0
 62
     0
 10
95.8204
 20
67.0306
 30
0.0
 11
95.8204
 21
72.8306
 31
0.0
  0
LINE
  8
0
 62
     0
 10
95.8204
 20
72.8306
 30
0.0
 11
96.6198
 21
72.8306
 31
0.0
  0
LINE
  8
0
 62
     0
 10
96.6198
 20
72.8306
 30
0.0
 11
96.6198
 21
75.9298
 31
0.0
  0
LINE
  8
0
 62
     0
 10
96.6198
 20
75.9298
 30
0.0
 11
95.8204
 21
75.9298
 31
0.0
  0
LINE
  8
0
 62
     0
 10
95.8204
 20
75.9298
 30
0.0
 11
95.8204
 21
76.9303
 31
0.0
  0
LINE
  8
0
 62
     0
 10
95.8204
 20
76.9303
 30
0.0
 11
81.8212
 21
76.9303
 31
0.0
  0
LINE
  8
0
 62
     0
 10
100.87
 20
76.9303
 30
0.0
 11
100.87
 21
75.9298
 31
0.0
  0
LINE
  8
0
 62
     0
 10
100.87
 20
75.9298
 30
0.0
 11
100.07
 21
75.9298
 31
0.0
  0
LINE
  8
0
 62
     0
 10
100.07
 20
75.9298
 30
0.0
 11
100.07
 21
72.8306
 31
0.0
  0
LINE
  8
0
 62
     0
 10
100.07
 20
72.8306
 30
0.0
 11
100.87
 21
72.8306
 31
0.0
  0
LINE
  8
0
 62
     0
 10
100.87
 20
72.8306
 30
0.0
 11
100.87
 21
67.0306
 31
0.0
  0
LINE
  8
0
 62
     0
 10
100.87
 20
67.0306
 30
0.0
 11
100.07
 21
67.0306
 31
0.0
  0
LINE
  8
0
 62
     0
 10
100.07
 20
67.0306
 30
0.0
 11
100.07
 21
63.93
 31
0.0
  0
LINE
  8
0
 62
     0
 10
100.07
 20
63.93
 30
0.0
 11
100.87
 21
63.93
 31
0.0
  0
LINE
  8
0
 62
     0
 10
100.87
 20
63.93
 30
0.0
 11
100.87
 21
62.9296
 31
0.0
  0
LINE
  8
0
 62
     0
 10
100.87
 20
62.9296
 30
0.0
 11
114.869
 21
62.9296
 31
0.0
  0
LINE
  8
0
 62
     0
 10
114.869
 20
62.9296
 30
0.0
 11
114.869
 21
63.93
 31
0.0
  0
LINE
  8
0
 62
     0
 10
114.869
 20
63.93
 30
0.0
 11
115.67
 21
63.93
 31
0.0
  0
LINE
  8
0
 62
     0
 10
115.67
 20
63.93
 30
0.0
 11
115.67
 21
67.0306
 31
0.0
  0
LINE
  8
0
 62
     0
 10
115.67
 20
67.0306
 30
0.0
 11
114.869
 21
67.0306
 31
0.0
  0
LINE
  8
0
 62
     0
 10
114.869
 20
67.0306
 30
0.0
 11
114.869
 21
72.8306
 31
0.0
  0
LINE
  8
0
 62
     0
 10
114.869
 20
72.8306
 30
0.0
 11
115.67
 21
72.8306
 31
0.0
  0
LINE
  8
0
 62
     0
 10
115.67
 20
72.8306
 30
0.0
 11
115.67
 21
75.9298
 31
0.0
  0
LINE
  8
0
 62
     0
 10
115.67
 20
75.9298
 30
0.0
 11
114.869
 21
75.9298
 31
0.0
  0
LINE
  8
0
 62
     0
 10
114.869
 20
75.9298
 30
0.0
 11
114.869
 21
76.9303
 31
0.0
  0
LINE
  8
0
 62
     0
 10
114.869
 20
76.9303
 30
0.0
 11
100.87
 21
76.9303
 31
0.0
  0
ENDSEC
  0
EOF
