  0
SECTION
  2
HEADER
  9
$ACADVER
  1
AC1009
  9
$FILLMODE
 70
 0
  9
$SPLFRAME
 70
 1
  9
$EXTMIN
 10
0
 20
0
 30
0.0
  9
$EXTMAX
 10
1058.33
 20
1058.33
 30
0.0
  0
ENDSEC
  0
SECTION
  2
TABLES
  0
TABLE
  2
LAYER
 70
1
  0
LAYER
  2
0
 70
     0
 62
     7
  6
CONTINUOUS
  0
ENDTAB
  0
ENDSEC
  0
SECTION
  2
ENTITIES
  0
LINE
  8
0
 62
     0
 10
0.0950846
 20
136.43
 30
0.0
 11
195.473
 21
136.43
 31
0.0
  0
LINE
  8
0
 62
     0
 10
195.473
 20
136.43
 30
0.0
 11
195.473
 21
0.389985
 31
0.0
  0
LINE
  8
0
 62
     0
 10
195.473
 20
0.389985
 30
0.0
 11
0.0950846
 21
0.389985
 31
0.0
  0
LINE
  8
0
 62
     0
 10
0.0950846
 20
0.389985
 30
0.0
 11
0.0950846
 21
136.43
 31
0.0
  0
LINE
  8
0
 62
     0
 10
179.469
 20
22.9058
 30
0.0
 11
178.857
 21
23.4198
 31
0.0
  0
LINE
  8
0
 62
     0
 10
178.857
 20
23.4198
 30
0.0
 11
176.863
 21
21.0454
 31
0.0
  0
LINE
  8
0
 62
     0
 10
176.863
 20
21.0454
 30
0.0
 11
177.476
 21
20.53
 31
0.0
  0
LINE
  8
0
 62
     0
 10
177.476
 20
20.53
 30
0.0
 11
173.749
 21
16.0872
 31
0.0
  0
LINE
  8
0
 62
     0
 10
173.749
 20
16.0872
 30
0.0
 11
173.135
 21
16.6026
 31
0.0
  0
LINE
  8
0
 62
     0
 10
173.135
 20
16.6026
 30
0.0
 11
171.144
 21
14.2269
 31
0.0
  0
LINE
  8
0
 62
     0
 10
171.144
 20
14.2269
 30
0.0
 11
171.756
 21
13.7129
 31
0.0
  0
LINE
  8
0
 62
     0
 10
171.756
 20
13.7129
 30
0.0
 11
171.114
 21
12.948
 31
0.0
  0
LINE
  8
0
 62
     0
 10
171.114
 20
12.948
 30
0.0
 11
181.838
 21
3.94808
 31
0.0
  0
LINE
  8
0
 62
     0
 10
181.838
 20
3.94808
 30
0.0
 11
182.48
 21
4.71428
 31
0.0
  0
LINE
  8
0
 62
     0
 10
182.48
 20
4.71428
 30
0.0
 11
183.093
 21
4.19887
 31
0.0
  0
LINE
  8
0
 62
     0
 10
183.093
 20
4.19887
 30
0.0
 11
185.086
 21
6.57461
 31
0.0
  0
LINE
  8
0
 62
     0
 10
185.086
 20
6.57461
 30
0.0
 11
184.474
 21
7.08865
 31
0.0
  0
LINE
  8
0
 62
     0
 10
184.474
 20
7.08865
 30
0.0
 11
188.201
 21
11.5314
 31
0.0
  0
LINE
  8
0
 62
     0
 10
188.201
 20
11.5314
 30
0.0
 11
188.815
 21
11.0174
 31
0.0
  0
LINE
  8
0
 62
     0
 10
188.815
 20
11.0174
 30
0.0
 11
190.806
 21
13.3931
 31
0.0
  0
LINE
  8
0
 62
     0
 10
190.806
 20
13.3931
 30
0.0
 11
190.194
 21
13.9072
 31
0.0
  0
LINE
  8
0
 62
     0
 10
190.194
 20
13.9072
 30
0.0
 11
190.836
 21
14.672
 31
0.0
  0
LINE
  8
0
 62
     0
 10
190.836
 20
14.672
 30
0.0
 11
180.112
 21
23.672
 31
0.0
  0
LINE
  8
0
 62
     0
 10
180.112
 20
23.672
 30
0.0
 11
179.469
 21
22.9058
 31
0.0
  0
LINE
  8
0
 62
     0
 10
162.198
 20
35.989
 30
0.0
 11
161.543
 21
36.449
 31
0.0
  0
LINE
  8
0
 62
     0
 10
161.543
 20
36.449
 30
0.0
 11
159.766
 21
33.908
 31
0.0
  0
LINE
  8
0
 62
     0
 10
159.766
 20
33.908
 30
0.0
 11
160.42
 21
33.4491
 31
0.0
  0
LINE
  8
0
 62
     0
 10
160.42
 20
33.4491
 30
0.0
 11
157.095
 21
28.699
 31
0.0
  0
LINE
  8
0
 62
     0
 10
157.095
 20
28.699
 30
0.0
 11
156.439
 21
29.1579
 31
0.0
  0
LINE
  8
0
 62
     0
 10
156.439
 20
29.1579
 30
0.0
 11
154.66
 21
26.6182
 31
0.0
  0
LINE
  8
0
 62
     0
 10
154.66
 20
26.6182
 30
0.0
 11
155.316
 21
26.1593
 31
0.0
  0
LINE
  8
0
 62
     0
 10
155.316
 20
26.1593
 30
0.0
 11
154.743
 21
25.3407
 31
0.0
  0
LINE
  8
0
 62
     0
 10
154.743
 20
25.3407
 30
0.0
 11
166.211
 21
17.3109
 31
0.0
  0
LINE
  8
0
 62
     0
 10
166.211
 20
17.3109
 30
0.0
 11
166.784
 21
18.1295
 31
0.0
  0
LINE
  8
0
 62
     0
 10
166.784
 20
18.1295
 30
0.0
 11
167.44
 21
17.6706
 31
0.0
  0
LINE
  8
0
 62
     0
 10
167.44
 20
17.6706
 30
0.0
 11
169.218
 21
20.2089
 31
0.0
  0
LINE
  8
0
 62
     0
 10
169.218
 20
20.2089
 30
0.0
 11
168.563
 21
20.6692
 31
0.0
  0
LINE
  8
0
 62
     0
 10
168.563
 20
20.6692
 30
0.0
 11
171.89
 21
25.4193
 31
0.0
  0
LINE
  8
0
 62
     0
 10
171.89
 20
25.4193
 30
0.0
 11
172.544
 21
24.9604
 31
0.0
  0
LINE
  8
0
 62
     0
 10
172.544
 20
24.9604
 30
0.0
 11
174.322
 21
27.5001
 31
0.0
  0
LINE
  8
0
 62
     0
 10
174.322
 20
27.5001
 30
0.0
 11
173.667
 21
27.959
 31
0.0
  0
LINE
  8
0
 62
     0
 10
173.667
 20
27.959
 30
0.0
 11
174.24
 21
28.7789
 31
0.0
  0
LINE
  8
0
 62
     0
 10
174.24
 20
28.7789
 30
0.0
 11
162.772
 21
36.8088
 31
0.0
  0
LINE
  8
0
 62
     0
 10
162.772
 20
36.8088
 30
0.0
 11
162.198
 21
35.989
 31
0.0
  0
LINE
  8
0
 62
     0
 10
143.222
 20
45.7521
 30
0.0
 11
142.529
 21
46.1518
 31
0.0
  0
LINE
  8
0
 62
     0
 10
142.529
 20
46.1518
 30
0.0
 11
140.979
 21
43.4689
 31
0.0
  0
LINE
  8
0
 62
     0
 10
140.979
 20
43.4689
 30
0.0
 11
141.672
 21
43.0678
 31
0.0
  0
LINE
  8
0
 62
     0
 10
141.672
 20
43.0678
 30
0.0
 11
138.773
 21
38.045
 31
0.0
  0
LINE
  8
0
 62
     0
 10
138.773
 20
38.045
 30
0.0
 11
138.079
 21
38.4457
 31
0.0
  0
LINE
  8
0
 62
     0
 10
138.079
 20
38.4457
 30
0.0
 11
136.529
 21
35.76
 31
0.0
  0
LINE
  8
0
 62
     0
 10
136.529
 20
35.76
 30
0.0
 11
137.222
 21
35.3603
 31
0.0
  0
LINE
  8
0
 62
     0
 10
137.222
 20
35.3603
 30
0.0
 11
136.722
 21
34.4951
 31
0.0
  0
LINE
  8
0
 62
     0
 10
136.722
 20
34.4951
 30
0.0
 11
148.846
 21
27.4946
 31
0.0
  0
LINE
  8
0
 62
     0
 10
148.846
 20
27.4946
 30
0.0
 11
149.346
 21
28.36
 31
0.0
  0
LINE
  8
0
 62
     0
 10
149.346
 20
28.36
 30
0.0
 11
150.04
 21
27.9604
 31
0.0
  0
LINE
  8
0
 62
     0
 10
150.04
 20
27.9604
 30
0.0
 11
151.59
 21
30.6462
 31
0.0
  0
LINE
  8
0
 62
     0
 10
151.59
 20
30.6462
 30
0.0
 11
150.896
 21
31.0458
 31
0.0
  0
LINE
  8
0
 62
     0
 10
150.896
 20
31.0458
 30
0.0
 11
153.796
 21
36.0687
 31
0.0
  0
LINE
  8
0
 62
     0
 10
153.796
 20
36.0687
 30
0.0
 11
154.489
 21
35.669
 31
0.0
  0
LINE
  8
0
 62
     0
 10
154.489
 20
35.669
 30
0.0
 11
156.039
 21
38.3522
 31
0.0
  0
LINE
  8
0
 62
     0
 10
156.039
 20
38.3522
 30
0.0
 11
155.346
 21
38.7533
 31
0.0
  0
LINE
  8
0
 62
     0
 10
155.346
 20
38.7533
 30
0.0
 11
155.847
 21
39.6187
 31
0.0
  0
LINE
  8
0
 62
     0
 10
155.847
 20
39.6187
 30
0.0
 11
143.722
 21
46.6189
 31
0.0
  0
LINE
  8
0
 62
     0
 10
143.722
 20
46.6189
 30
0.0
 11
143.222
 21
45.7521
 31
0.0
  0
LINE
  8
0
 62
     0
 10
179.914
 20
48.0039
 30
0.0
 11
179.258
 21
48.4628
 31
0.0
  0
LINE
  8
0
 62
     0
 10
179.258
 20
48.4628
 30
0.0
 11
177.48
 21
45.9232
 31
0.0
  0
LINE
  8
0
 62
     0
 10
177.48
 20
45.9232
 30
0.0
 11
178.135
 21
45.4642
 31
0.0
  0
LINE
  8
0
 62
     0
 10
178.135
 20
45.4642
 30
0.0
 11
174.81
 21
40.7141
 31
0.0
  0
LINE
  8
0
 62
     0
 10
174.81
 20
40.7141
 30
0.0
 11
174.154
 21
41.173
 31
0.0
  0
LINE
  8
0
 62
     0
 10
174.154
 20
41.173
 30
0.0
 11
172.376
 21
38.632
 31
0.0
  0
LINE
  8
0
 62
     0
 10
172.376
 20
38.632
 30
0.0
 11
173.03
 21
38.173
 31
0.0
  0
LINE
  8
0
 62
     0
 10
173.03
 20
38.173
 30
0.0
 11
172.457
 21
37.3546
 31
0.0
  0
LINE
  8
0
 62
     0
 10
172.457
 20
37.3546
 30
0.0
 11
183.925
 21
29.3247
 31
0.0
  0
LINE
  8
0
 62
     0
 10
183.925
 20
29.3247
 30
0.0
 11
184.5
 21
30.1432
 31
0.0
  0
LINE
  8
0
 62
     0
 10
184.5
 20
30.1432
 30
0.0
 11
185.155
 21
29.6843
 31
0.0
  0
LINE
  8
0
 62
     0
 10
185.155
 20
29.6843
 30
0.0
 11
186.932
 21
32.2241
 31
0.0
  0
LINE
  8
0
 62
     0
 10
186.932
 20
32.2241
 30
0.0
 11
186.278
 21
32.6829
 31
0.0
  0
LINE
  8
0
 62
     0
 10
186.278
 20
32.6829
 30
0.0
 11
189.603
 21
37.4343
 31
0.0
  0
LINE
  8
0
 62
     0
 10
189.603
 20
37.4343
 30
0.0
 11
190.259
 21
36.9757
 31
0.0
  0
LINE
  8
0
 62
     0
 10
190.259
 20
36.9757
 30
0.0
 11
192.038
 21
39.5139
 31
0.0
  0
LINE
  8
0
 62
     0
 10
192.038
 20
39.5139
 30
0.0
 11
191.382
 21
39.9743
 31
0.0
  0
LINE
  8
0
 62
     0
 10
191.382
 20
39.9743
 30
0.0
 11
191.955
 21
40.7928
 31
0.0
  0
LINE
  8
0
 62
     0
 10
191.955
 20
40.7928
 30
0.0
 11
180.487
 21
48.8227
 31
0.0
  0
LINE
  8
0
 62
     0
 10
180.487
 20
48.8227
 30
0.0
 11
179.914
 21
48.0039
 31
0.0
  0
LINE
  8
0
 62
     0
 10
161.948
 20
59.1372
 30
0.0
 11
161.255
 21
59.5383
 31
0.0
  0
LINE
  8
0
 62
     0
 10
161.255
 20
59.5383
 30
0.0
 11
159.705
 21
56.8537
 31
0.0
  0
LINE
  8
0
 62
     0
 10
159.705
 20
56.8537
 30
0.0
 11
160.398
 21
56.454
 31
0.0
  0
LINE
  8
0
 62
     0
 10
160.398
 20
56.454
 30
0.0
 11
157.499
 21
51.4311
 31
0.0
  0
LINE
  8
0
 62
     0
 10
157.499
 20
51.4311
 30
0.0
 11
156.805
 21
51.8308
 31
0.0
  0
LINE
  8
0
 62
     0
 10
156.805
 20
51.8308
 30
0.0
 11
155.255
 21
49.1451
 31
0.0
  0
LINE
  8
0
 62
     0
 10
155.255
 20
49.1451
 30
0.0
 11
155.949
 21
48.7454
 31
0.0
  0
LINE
  8
0
 62
     0
 10
155.949
 20
48.7454
 30
0.0
 11
155.448
 21
47.8801
 31
0.0
  0
LINE
  8
0
 62
     0
 10
155.448
 20
47.8801
 30
0.0
 11
167.572
 21
40.8795
 31
0.0
  0
LINE
  8
0
 62
     0
 10
167.572
 20
40.8795
 30
0.0
 11
168.073
 21
41.7449
 31
0.0
  0
LINE
  8
0
 62
     0
 10
168.073
 20
41.7449
 30
0.0
 11
168.766
 21
41.3452
 31
0.0
  0
LINE
  8
0
 62
     0
 10
168.766
 20
41.3452
 30
0.0
 11
170.316
 21
44.0313
 31
0.0
  0
LINE
  8
0
 62
     0
 10
170.316
 20
44.0313
 30
0.0
 11
169.623
 21
44.4306
 31
0.0
  0
LINE
  8
0
 62
     0
 10
169.623
 20
44.4306
 30
0.0
 11
172.522
 21
49.4538
 31
0.0
  0
LINE
  8
0
 62
     0
 10
172.522
 20
49.4538
 30
0.0
 11
173.215
 21
49.0541
 31
0.0
  0
LINE
  8
0
 62
     0
 10
173.215
 20
49.0541
 30
0.0
 11
174.765
 21
51.737
 31
0.0
  0
LINE
  8
0
 62
     0
 10
174.765
 20
51.737
 30
0.0
 11
174.073
 21
52.1381
 31
0.0
  0
LINE
  8
0
 62
     0
 10
174.073
 20
52.1381
 30
0.0
 11
174.573
 21
53.0035
 31
0.0
  0
LINE
  8
0
 62
     0
 10
174.573
 20
53.0035
 30
0.0
 11
162.449
 21
60.004
 31
0.0
  0
LINE
  8
0
 62
     0
 10
162.449
 20
60.004
 30
0.0
 11
161.948
 21
59.1372
 31
0.0
  0
LINE
  8
0
 62
     0
 10
107.395
 20
71.9928
 30
0.0
 11
107.395
 21
70.9937
 31
0.0
  0
LINE
  8
0
 62
     0
 10
107.395
 20
70.9937
 30
0.0
 11
106.594
 21
70.9937
 31
0.0
  0
LINE
  8
0
 62
     0
 10
106.594
 20
70.9937
 30
0.0
 11
106.594
 21
67.8931
 31
0.0
  0
LINE
  8
0
 62
     0
 10
106.594
 20
67.8931
 30
0.0
 11
107.395
 21
67.8931
 31
0.0
  0
LINE
  8
0
 62
     0
 10
107.395
 20
67.8931
 30
0.0
 11
107.395
 21
62.0931
 31
0.0
  0
LINE
  8
0
 62
     0
 10
107.395
 20
62.0931
 30
0.0
 11
106.594
 21
62.0931
 31
0.0
  0
LINE
  8
0
 62
     0
 10
106.594
 20
62.0931
 30
0.0
 11
106.594
 21
58.994
 31
0.0
  0
LINE
  8
0
 62
     0
 10
106.594
 20
58.994
 30
0.0
 11
107.395
 21
58.994
 31
0.0
  0
LINE
  8
0
 62
     0
 10
107.395
 20
58.994
 30
0.0
 11
107.395
 21
57.9935
 31
0.0
  0
LINE
  8
0
 62
     0
 10
107.395
 20
57.9935
 30
0.0
 11
121.394
 21
57.9935
 31
0.0
  0
LINE
  8
0
 62
     0
 10
121.394
 20
57.9935
 30
0.0
 11
121.394
 21
58.994
 31
0.0
  0
LINE
  8
0
 62
     0
 10
121.394
 20
58.994
 30
0.0
 11
122.195
 21
58.994
 31
0.0
  0
LINE
  8
0
 62
     0
 10
122.195
 20
58.994
 30
0.0
 11
122.195
 21
62.0931
 31
0.0
  0
LINE
  8
0
 62
     0
 10
122.195
 20
62.0931
 30
0.0
 11
121.394
 21
62.0931
 31
0.0
  0
LINE
  8
0
 62
     0
 10
121.394
 20
62.0931
 30
0.0
 11
121.394
 21
67.8931
 31
0.0
  0
LINE
  8
0
 62
     0
 10
121.394
 20
67.8931
 30
0.0
 11
122.195
 21
67.8931
 31
0.0
  0
LINE
  8
0
 62
     0
 10
122.195
 20
67.8931
 30
0.0
 11
122.195
 21
70.9937
 31
0.0
  0
LINE
  8
0
 62
     0
 10
122.195
 20
70.9937
 30
0.0
 11
121.394
 21
70.9937
 31
0.0
  0
LINE
  8
0
 62
     0
 10
121.394
 20
70.9937
 30
0.0
 11
121.394
 21
71.9928
 31
0.0
  0
LINE
  8
0
 62
     0
 10
121.394
 20
71.9928
 30
0.0
 11
107.395
 21
71.9928
 31
0.0
  0
LINE
  8
0
 62
     0
 10
88.3447
 20
74.374
 30
0.0
 11
88.3447
 21
73.375
 31
0.0
  0
LINE
  8
0
 62
     0
 10
88.3447
 20
73.375
 30
0.0
 11
87.5439
 21
73.375
 31
0.0
  0
LINE
  8
0
 62
     0
 10
87.5439
 20
73.375
 30
0.0
 11
87.5439
 21
70.2744
 31
0.0
  0
LINE
  8
0
 62
     0
 10
87.5439
 20
70.2744
 30
0.0
 11
88.3447
 21
70.2744
 31
0.0
  0
LINE
  8
0
 62
     0
 10
88.3447
 20
70.2744
 30
0.0
 11
88.3447
 21
64.4744
 31
0.0
  0
LINE
  8
0
 62
     0
 10
88.3447
 20
64.4744
 30
0.0
 11
87.5439
 21
64.4744
 31
0.0
  0
LINE
  8
0
 62
     0
 10
87.5439
 20
64.4744
 30
0.0
 11
87.5439
 21
61.3752
 31
0.0
  0
LINE
  8
0
 62
     0
 10
87.5439
 20
61.3752
 30
0.0
 11
88.3447
 21
61.3752
 31
0.0
  0
LINE
  8
0
 62
     0
 10
88.3447
 20
61.3752
 30
0.0
 11
88.3447
 21
60.3747
 31
0.0
  0
LINE
  8
0
 62
     0
 10
88.3447
 20
60.3747
 30
0.0
 11
102.344
 21
60.3747
 31
0.0
  0
LINE
  8
0
 62
     0
 10
102.344
 20
60.3747
 30
0.0
 11
102.344
 21
61.3752
 31
0.0
  0
LINE
  8
0
 62
     0
 10
102.344
 20
61.3752
 30
0.0
 11
103.145
 21
61.3752
 31
0.0
  0
LINE
  8
0
 62
     0
 10
103.145
 20
61.3752
 30
0.0
 11
103.145
 21
64.4744
 31
0.0
  0
LINE
  8
0
 62
     0
 10
103.145
 20
64.4744
 30
0.0
 11
102.344
 21
64.4744
 31
0.0
  0
LINE
  8
0
 62
     0
 10
102.344
 20
64.4744
 30
0.0
 11
102.344
 21
70.2744
 31
0.0
  0
LINE
  8
0
 62
     0
 10
102.344
 20
70.2744
 30
0.0
 11
103.145
 21
70.2744
 31
0.0
  0
LINE
  8
0
 62
     0
 10
103.145
 20
70.2744
 30
0.0
 11
103.145
 21
73.375
 31
0.0
  0
LINE
  8
0
 62
     0
 10
103.145
 20
73.375
 30
0.0
 11
102.344
 21
73.375
 31
0.0
  0
LINE
  8
0
 62
     0
 10
102.344
 20
73.375
 30
0.0
 11
102.344
 21
74.374
 31
0.0
  0
LINE
  8
0
 62
     0
 10
102.344
 20
74.374
 30
0.0
 11
88.3447
 21
74.374
 31
0.0
  0
LINE
  8
0
 62
     0
 10
31.1947
 20
76.7553
 30
0.0
 11
31.1947
 21
75.7548
 31
0.0
  0
LINE
  8
0
 62
     0
 10
31.1947
 20
75.7548
 30
0.0
 11
30.394
 21
75.7548
 31
0.0
  0
LINE
  8
0
 62
     0
 10
30.394
 20
75.7548
 30
0.0
 11
30.394
 21
72.6556
 31
0.0
  0
LINE
  8
0
 62
     0
 10
30.394
 20
72.6556
 30
0.0
 11
31.1947
 21
72.6556
 31
0.0
  0
LINE
  8
0
 62
     0
 10
31.1947
 20
72.6556
 30
0.0
 11
31.1947
 21
66.8556
 31
0.0
  0
LINE
  8
0
 62
     0
 10
31.1947
 20
66.8556
 30
0.0
 11
30.394
 21
66.8556
 31
0.0
  0
LINE
  8
0
 62
     0
 10
30.394
 20
66.8556
 30
0.0
 11
30.394
 21
63.7551
 31
0.0
  0
LINE
  8
0
 62
     0
 10
30.394
 20
63.7551
 30
0.0
 11
31.1947
 21
63.7551
 31
0.0
  0
LINE
  8
0
 62
     0
 10
31.1947
 20
63.7551
 30
0.0
 11
31.1947
 21
62.756
 31
0.0
  0
LINE
  8
0
 62
     0
 10
31.1947
 20
62.756
 30
0.0
 11
45.194
 21
62.756
 31
0.0
  0
LINE
  8
0
 62
     0
 10
45.194
 20
62.756
 30
0.0
 11
45.194
 21
63.7551
 31
0.0
  0
LINE
  8
0
 62
     0
 10
45.194
 20
63.7551
 30
0.0
 11
45.9948
 21
63.7551
 31
0.0
  0
LINE
  8
0
 62
     0
 10
45.9948
 20
63.7551
 30
0.0
 11
45.9948
 21
66.8556
 31
0.0
  0
LINE
  8
0
 62
     0
 10
45.9948
 20
66.8556
 30
0.0
 11
45.194
 21
66.8556
 31
0.0
  0
LINE
  8
0
 62
     0
 10
45.194
 20
66.8556
 30
0.0
 11
45.194
 21
72.6556
 31
0.0
  0
LINE
  8
0
 62
     0
 10
45.194
 20
72.6556
 30
0.0
 11
45.9948
 21
72.6556
 31
0.0
  0
LINE
  8
0
 62
     0
 10
45.9948
 20
72.6556
 30
0.0
 11
45.9948
 21
75.7548
 31
0.0
  0
LINE
  8
0
 62
     0
 10
45.9948
 20
75.7548
 30
0.0
 11
45.194
 21
75.7548
 31
0.0
  0
LINE
  8
0
 62
     0
 10
45.194
 20
75.7548
 30
0.0
 11
45.194
 21
76.7553
 31
0.0
  0
LINE
  8
0
 62
     0
 10
45.194
 20
76.7553
 30
0.0
 11
31.1947
 21
76.7553
 31
0.0
  0
LINE
  8
0
 62
     0
 10
12.1447
 20
86.2803
 30
0.0
 11
12.1447
 21
85.2798
 31
0.0
  0
LINE
  8
0
 62
     0
 10
12.1447
 20
85.2798
 30
0.0
 11
11.344
 21
85.2798
 31
0.0
  0
LINE
  8
0
 62
     0
 10
11.344
 20
85.2798
 30
0.0
 11
11.344
 21
82.1806
 31
0.0
  0
LINE
  8
0
 62
     0
 10
11.344
 20
82.1806
 30
0.0
 11
12.1447
 21
82.1806
 31
0.0
  0
LINE
  8
0
 62
     0
 10
12.1447
 20
82.1806
 30
0.0
 11
12.1447
 21
76.3806
 31
0.0
  0
LINE
  8
0
 62
     0
 10
12.1447
 20
76.3806
 30
0.0
 11
11.344
 21
76.3806
 31
0.0
  0
LINE
  8
0
 62
     0
 10
11.344
 20
76.3806
 30
0.0
 11
11.344
 21
73.2801
 31
0.0
  0
LINE
  8
0
 62
     0
 10
11.344
 20
73.2801
 30
0.0
 11
12.1447
 21
73.2801
 31
0.0
  0
LINE
  8
0
 62
     0
 10
12.1447
 20
73.2801
 30
0.0
 11
12.1447
 21
72.281
 31
0.0
  0
LINE
  8
0
 62
     0
 10
12.1447
 20
72.281
 30
0.0
 11
26.1441
 21
72.281
 31
0.0
  0
LINE
  8
0
 62
     0
 10
26.1441
 20
72.281
 30
0.0
 11
26.1441
 21
73.2801
 31
0.0
  0
LINE
  8
0
 62
     0
 10
26.1441
 20
73.2801
 30
0.0
 11
26.9448
 21
73.2801
 31
0.0
  0
LINE
  8
0
 62
     0
 10
26.9448
 20
73.2801
 30
0.0
 11
26.9448
 21
76.3806
 31
0.0
  0
LINE
  8
0
 62
     0
 10
26.9448
 20
76.3806
 30
0.0
 11
26.1441
 21
76.3806
 31
0.0
  0
LINE
  8
0
 62
     0
 10
26.1441
 20
76.3806
 30
0.0
 11
26.1441
 21
82.1806
 31
0.0
  0
LINE
  8
0
 62
     0
 10
26.1441
 20
82.1806
 30
0.0
 11
26.9448
 21
82.1806
 31
0.0
  0
LINE
  8
0
 62
     0
 10
26.9448
 20
82.1806
 30
0.0
 11
26.9448
 21
85.2798
 31
0.0
  0
LINE
  8
0
 62
     0
 10
26.9448
 20
85.2798
 30
0.0
 11
26.1441
 21
85.2798
 31
0.0
  0
LINE
  8
0
 62
     0
 10
26.1441
 20
85.2798
 30
0.0
 11
26.1441
 21
86.2803
 31
0.0
  0
LINE
  8
0
 62
     0
 10
26.1441
 20
86.2803
 30
0.0
 11
12.1447
 21
86.2803
 31
0.0
  0
LINE
  8
0
 62
     0
 10
50.2447
 20
86.2803
 30
0.0
 11
50.2447
 21
85.2798
 31
0.0
  0
LINE
  8
0
 62
     0
 10
50.2447
 20
85.2798
 30
0.0
 11
49.4439
 21
85.2798
 31
0.0
  0
LINE
  8
0
 62
     0
 10
49.4439
 20
85.2798
 30
0.0
 11
49.4439
 21
82.1806
 31
0.0
  0
LINE
  8
0
 62
     0
 10
49.4439
 20
82.1806
 30
0.0
 11
50.2447
 21
82.1806
 31
0.0
  0
LINE
  8
0
 62
     0
 10
50.2447
 20
82.1806
 30
0.0
 11
50.2447
 21
76.3806
 31
0.0
  0
LINE
  8
0
 62
     0
 10
50.2447
 20
76.3806
 30
0.0
 11
49.4439
 21
76.3806
 31
0.0
  0
LINE
  8
0
 62
     0
 10
49.4439
 20
76.3806
 30
0.0
 11
49.4439
 21
73.2801
 31
0.0
  0
LINE
  8
0
 62
     0
 10
49.4439
 20
73.2801
 30
0.0
 11
50.2447
 21
73.2801
 31
0.0
  0
LINE
  8
0
 62
     0
 10
50.2447
 20
73.2801
 30
0.0
 11
50.2447
 21
72.281
 31
0.0
  0
LINE
  8
0
 62
     0
 10
50.2447
 20
72.281
 30
0.0
 11
64.244
 21
72.281
 31
0.0
  0
LINE
  8
0
 62
     0
 10
64.244
 20
72.281
 30
0.0
 11
64.244
 21
73.2801
 31
0.0
  0
LINE
  8
0
 62
     0
 10
64.244
 20
73.2801
 30
0.0
 11
65.0448
 21
73.2801
 31
0.0
  0
LINE
  8
0
 62
     0
 10
65.0448
 20
73.2801
 30
0.0
 11
65.0448
 21
76.3806
 31
0.0
  0
LINE
  8
0
 62
     0
 10
65.0448
 20
76.3806
 30
0.0
 11
64.244
 21
76.3806
 31
0.0
  0
LINE
  8
0
 62
     0
 10
64.244
 20
76.3806
 30
0.0
 11
64.244
 21
82.1806
 31
0.0
  0
LINE
  8
0
 62
     0
 10
64.244
 20
82.1806
 30
0.0
 11
65.0448
 21
82.1806
 31
0.0
  0
LINE
  8
0
 62
     0
 10
65.0448
 20
82.1806
 30
0.0
 11
65.0448
 21
85.2798
 31
0.0
  0
LINE
  8
0
 62
     0
 10
65.0448
 20
85.2798
 30
0.0
 11
64.244
 21
85.2798
 31
0.0
  0
LINE
  8
0
 62
     0
 10
64.244
 20
85.2798
 30
0.0
 11
64.244
 21
86.2803
 31
0.0
  0
LINE
  8
0
 62
     0
 10
64.244
 20
86.2803
 30
0.0
 11
50.2447
 21
86.2803
 31
0.0
  0
LINE
  8
0
 62
     0
 10
107.395
 20
91.0428
 30
0.0
 11
107.395
 21
90.0437
 31
0.0
  0
LINE
  8
0
 62
     0
 10
107.395
 20
90.0437
 30
0.0
 11
106.594
 21
90.0437
 31
0.0
  0
LINE
  8
0
 62
     0
 10
106.594
 20
90.0437
 30
0.0
 11
106.594
 21
86.9431
 31
0.0
  0
LINE
  8
0
 62
     0
 10
106.594
 20
86.9431
 30
0.0
 11
107.395
 21
86.9431
 31
0.0
  0
LINE
  8
0
 62
     0
 10
107.395
 20
86.9431
 30
0.0
 11
107.395
 21
81.1431
 31
0.0
  0
LINE
  8
0
 62
     0
 10
107.395
 20
81.1431
 30
0.0
 11
106.594
 21
81.1431
 31
0.0
  0
LINE
  8
0
 62
     0
 10
106.594
 20
81.1431
 30
0.0
 11
106.594
 21
78.044
 31
0.0
  0
LINE
  8
0
 62
     0
 10
106.594
 20
78.044
 30
0.0
 11
107.395
 21
78.044
 31
0.0
  0
LINE
  8
0
 62
     0
 10
107.395
 20
78.044
 30
0.0
 11
107.395
 21
77.0435
 31
0.0
  0
LINE
  8
0
 62
     0
 10
107.395
 20
77.0435
 30
0.0
 11
121.394
 21
77.0435
 31
0.0
  0
LINE
  8
0
 62
     0
 10
121.394
 20
77.0435
 30
0.0
 11
121.394
 21
78.044
 31
0.0
  0
LINE
  8
0
 62
     0
 10
121.394
 20
78.044
 30
0.0
 11
122.195
 21
78.044
 31
0.0
  0
LINE
  8
0
 62
     0
 10
122.195
 20
78.044
 30
0.0
 11
122.195
 21
81.1431
 31
0.0
  0
LINE
  8
0
 62
     0
 10
122.195
 20
81.1431
 30
0.0
 11
121.394
 21
81.1431
 31
0.0
  0
LINE
  8
0
 62
     0
 10
121.394
 20
81.1431
 30
0.0
 11
121.394
 21
86.9431
 31
0.0
  0
LINE
  8
0
 62
     0
 10
121.394
 20
86.9431
 30
0.0
 11
122.195
 21
86.9431
 31
0.0
  0
LINE
  8
0
 62
     0
 10
122.195
 20
86.9431
 30
0.0
 11
122.195
 21
90.0437
 31
0.0
  0
LINE
  8
0
 62
     0
 10
122.195
 20
90.0437
 30
0.0
 11
121.394
 21
90.0437
 31
0.0
  0
LINE
  8
0
 62
     0
 10
121.394
 20
90.0437
 30
0.0
 11
121.394
 21
91.0428
 31
0.0
  0
LINE
  8
0
 62
     0
 10
121.394
 20
91.0428
 30
0.0
 11
107.395
 21
91.0428
 31
0.0
  0
LINE
  8
0
 62
     0
 10
88.3447
 20
93.424
 30
0.0
 11
88.3447
 21
92.425
 31
0.0
  0
LINE
  8
0
 62
     0
 10
88.3447
 20
92.425
 30
0.0
 11
87.5439
 21
92.425
 31
0.0
  0
LINE
  8
0
 62
     0
 10
87.5439
 20
92.425
 30
0.0
 11
87.5439
 21
89.3244
 31
0.0
  0
LINE
  8
0
 62
     0
 10
87.5439
 20
89.3244
 30
0.0
 11
88.3447
 21
89.3244
 31
0.0
  0
LINE
  8
0
 62
     0
 10
88.3447
 20
89.3244
 30
0.0
 11
88.3447
 21
83.5244
 31
0.0
  0
LINE
  8
0
 62
     0
 10
88.3447
 20
83.5244
 30
0.0
 11
87.5439
 21
83.5244
 31
0.0
  0
LINE
  8
0
 62
     0
 10
87.5439
 20
83.5244
 30
0.0
 11
87.5439
 21
80.4252
 31
0.0
  0
LINE
  8
0
 62
     0
 10
87.5439
 20
80.4252
 30
0.0
 11
88.3447
 21
80.4252
 31
0.0
  0
LINE
  8
0
 62
     0
 10
88.3447
 20
80.4252
 30
0.0
 11
88.3447
 21
79.4247
 31
0.0
  0
LINE
  8
0
 62
     0
 10
88.3447
 20
79.4247
 30
0.0
 11
102.344
 21
79.4247
 31
0.0
  0
LINE
  8
0
 62
     0
 10
102.344
 20
79.4247
 30
0.0
 11
102.344
 21
80.4252
 31
0.0
  0
LINE
  8
0
 62
     0
 10
102.344
 20
80.4252
 30
0.0
 11
103.145
 21
80.4252
 31
0.0
  0
LINE
  8
0
 62
     0
 10
103.145
 20
80.4252
 30
0.0
 11
103.145
 21
83.5244
 31
0.0
  0
LINE
  8
0
 62
     0
 10
103.145
 20
83.5244
 30
0.0
 11
102.344
 21
83.5244
 31
0.0
  0
LINE
  8
0
 62
     0
 10
102.344
 20
83.5244
 30
0.0
 11
102.344
 21
89.3244
 31
0.0
  0
LINE
  8
0
 62
     0
 10
102.344
 20
89.3244
 30
0.0
 11
103.145
 21
89.3244
 31
0.0
  0
LINE
  8
0
 62
     0
 10
103.145
 20
89.3244
 30
0.0
 11
103.145
 21
92.425
 31
0.0
  0
LINE
  8
0
 62
     0
 10
103.145
 20
92.425
 30
0.0
 11
102.344
 21
92.425
 31
0.0
  0
LINE
  8
0
 62
     0
 10
102.344
 20
92.425
 30
0.0
 11
102.344
 21
93.424
 31
0.0
  0
LINE
  8
0
 62
     0
 10
102.344
 20
93.424
 30
0.0
 11
88.3447
 21
93.424
 31
0.0
  0
LINE
  8
0
 62
     0
 10
31.1947
 20
95.8053
 30
0.0
 11
31.1947
 21
94.8048
 31
0.0
  0
LINE
  8
0
 62
     0
 10
31.1947
 20
94.8048
 30
0.0
 11
30.394
 21
94.8048
 31
0.0
  0
LINE
  8
0
 62
     0
 10
30.394
 20
94.8048
 30
0.0
 11
30.394
 21
91.7056
 31
0.0
  0
LINE
  8
0
 62
     0
 10
30.394
 20
91.7056
 30
0.0
 11
31.1947
 21
91.7056
 31
0.0
  0
LINE
  8
0
 62
     0
 10
31.1947
 20
91.7056
 30
0.0
 11
31.1947
 21
85.9056
 31
0.0
  0
LINE
  8
0
 62
     0
 10
31.1947
 20
85.9056
 30
0.0
 11
30.394
 21
85.9056
 31
0.0
  0
LINE
  8
0
 62
     0
 10
30.394
 20
85.9056
 30
0.0
 11
30.394
 21
82.8051
 31
0.0
  0
LINE
  8
0
 62
     0
 10
30.394
 20
82.8051
 30
0.0
 11
31.1947
 21
82.8051
 31
0.0
  0
LINE
  8
0
 62
     0
 10
31.1947
 20
82.8051
 30
0.0
 11
31.1947
 21
81.806
 31
0.0
  0
LINE
  8
0
 62
     0
 10
31.1947
 20
81.806
 30
0.0
 11
45.194
 21
81.806
 31
0.0
  0
LINE
  8
0
 62
     0
 10
45.194
 20
81.806
 30
0.0
 11
45.194
 21
82.8051
 31
0.0
  0
LINE
  8
0
 62
     0
 10
45.194
 20
82.8051
 30
0.0
 11
45.9948
 21
82.8051
 31
0.0
  0
LINE
  8
0
 62
     0
 10
45.9948
 20
82.8051
 30
0.0
 11
45.9948
 21
85.9056
 31
0.0
  0
LINE
  8
0
 62
     0
 10
45.9948
 20
85.9056
 30
0.0
 11
45.194
 21
85.9056
 31
0.0
  0
LINE
  8
0
 62
     0
 10
45.194
 20
85.9056
 30
0.0
 11
45.194
 21
91.7056
 31
0.0
  0
LINE
  8
0
 62
     0
 10
45.194
 20
91.7056
 30
0.0
 11
45.9948
 21
91.7056
 31
0.0
  0
LINE
  8
0
 62
     0
 10
45.9948
 20
91.7056
 30
0.0
 11
45.9948
 21
94.8048
 31
0.0
  0
LINE
  8
0
 62
     0
 10
45.9948
 20
94.8048
 30
0.0
 11
45.194
 21
94.8048
 31
0.0
  0
LINE
  8
0
 62
     0
 10
45.194
 20
94.8048
 30
0.0
 11
45.194
 21
95.8053
 31
0.0
  0
LINE
  8
0
 62
     0
 10
45.194
 20
95.8053
 30
0.0
 11
31.1947
 21
95.8053
 31
0.0
  0
LINE
  8
0
 62
     0
 10
69.2947
 20
95.8053
 30
0.0
 11
69.2947
 21
94.8048
 31
0.0
  0
LINE
  8
0
 62
     0
 10
69.2947
 20
94.8048
 30
0.0
 11
68.4939
 21
94.8048
 31
0.0
  0
LINE
  8
0
 62
     0
 10
68.4939
 20
94.8048
 30
0.0
 11
68.4939
 21
91.7056
 31
0.0
  0
LINE
  8
0
 62
     0
 10
68.4939
 20
91.7056
 30
0.0
 11
69.2947
 21
91.7056
 31
0.0
  0
LINE
  8
0
 62
     0
 10
69.2947
 20
91.7056
 30
0.0
 11
69.2947
 21
85.9056
 31
0.0
  0
LINE
  8
0
 62
     0
 10
69.2947
 20
85.9056
 30
0.0
 11
68.4939
 21
85.9056
 31
0.0
  0
LINE
  8
0
 62
     0
 10
68.4939
 20
85.9056
 30
0.0
 11
68.4939
 21
82.8051
 31
0.0
  0
LINE
  8
0
 62
     0
 10
68.4939
 20
82.8051
 30
0.0
 11
69.2947
 21
82.8051
 31
0.0
  0
LINE
  8
0
 62
     0
 10
69.2947
 20
82.8051
 30
0.0
 11
69.2947
 21
81.806
 31
0.0
  0
LINE
  8
0
 62
     0
 10
69.2947
 20
81.806
 30
0.0
 11
83.294
 21
81.806
 31
0.0
  0
LINE
  8
0
 62
     0
 10
83.294
 20
81.806
 30
0.0
 11
83.294
 21
82.8051
 31
0.0
  0
LINE
  8
0
 62
     0
 10
83.294
 20
82.8051
 30
0.0
 11
84.0948
 21
82.8051
 31
0.0
  0
LINE
  8
0
 62
     0
 10
84.0948
 20
82.8051
 30
0.0
 11
84.0948
 21
85.9056
 31
0.0
  0
LINE
  8
0
 62
     0
 10
84.0948
 20
85.9056
 30
0.0
 11
83.294
 21
85.9056
 31
0.0
  0
LINE
  8
0
 62
     0
 10
83.294
 20
85.9056
 30
0.0
 11
83.294
 21
91.7056
 31
0.0
  0
LINE
  8
0
 62
     0
 10
83.294
 20
91.7056
 30
0.0
 11
84.0948
 21
91.7056
 31
0.0
  0
LINE
  8
0
 62
     0
 10
84.0948
 20
91.7056
 30
0.0
 11
84.0948
 21
94.8048
 31
0.0
  0
LINE
  8
0
 62
     0
 10
84.0948
 20
94.8048
 30
0.0
 11
83.294
 21
94.8048
 31
0.0
  0
LINE
  8
0
 62
     0
 10
83.294
 20
94.8048
 30
0.0
 11
83.294
 21
95.8053
 31
0.0
  0
LINE
  8
0
 62
     0
 10
83.294
 20
95.8053
 30
0.0
 11
69.2947
 21
95.8053
 31
0.0
  0
LINE
  8
0
 62
     0
 10
50.2447
 20
105.33
 30
0.0
 11
50.2447
 21
104.33
 31
0.0
  0
LINE
  8
0
 62
     0
 10
50.2447
 20
104.33
 30
0.0
 11
49.4439
 21
104.33
 31
0.0
  0
LINE
  8
0
 62
     0
 10
49.4439
 20
104.33
 30
0.0
 11
49.4439
 21
101.231
 31
0.0
  0
LINE
  8
0
 62
     0
 10
49.4439
 20
101.231
 30
0.0
 11
50.2447
 21
101.231
 31
0.0
  0
LINE
  8
0
 62
     0
 10
50.2447
 20
101.231
 30
0.0
 11
50.2447
 21
95.4306
 31
0.0
  0
LINE
  8
0
 62
     0
 10
50.2447
 20
95.4306
 30
0.0
 11
49.4439
 21
95.4306
 31
0.0
  0
LINE
  8
0
 62
     0
 10
49.4439
 20
95.4306
 30
0.0
 11
49.4439
 21
92.3301
 31
0.0
  0
LINE
  8
0
 62
     0
 10
49.4439
 20
92.3301
 30
0.0
 11
50.2447
 21
92.3301
 31
0.0
  0
LINE
  8
0
 62
     0
 10
50.2447
 20
92.3301
 30
0.0
 11
50.2447
 21
91.331
 31
0.0
  0
LINE
  8
0
 62
     0
 10
50.2447
 20
91.331
 30
0.0
 11
64.244
 21
91.331
 31
0.0
  0
LINE
  8
0
 62
     0
 10
64.244
 20
91.331
 30
0.0
 11
64.244
 21
92.3301
 31
0.0
  0
LINE
  8
0
 62
     0
 10
64.244
 20
92.3301
 30
0.0
 11
65.0448
 21
92.3301
 31
0.0
  0
LINE
  8
0
 62
     0
 10
65.0448
 20
92.3301
 30
0.0
 11
65.0448
 21
95.4306
 31
0.0
  0
LINE
  8
0
 62
     0
 10
65.0448
 20
95.4306
 30
0.0
 11
64.244
 21
95.4306
 31
0.0
  0
LINE
  8
0
 62
     0
 10
64.244
 20
95.4306
 30
0.0
 11
64.244
 21
101.231
 31
0.0
  0
LINE
  8
0
 62
     0
 10
64.244
 20
101.231
 30
0.0
 11
65.0448
 21
101.231
 31
0.0
  0
LINE
  8
0
 62
     0
 10
65.0448
 20
101.231
 30
0.0
 11
65.0448
 21
104.33
 31
0.0
  0
LINE
  8
0
 62
     0
 10
65.0448
 20
104.33
 30
0.0
 11
64.244
 21
104.33
 31
0.0
  0
LINE
  8
0
 62
     0
 10
64.244
 20
104.33
 30
0.0
 11
64.244
 21
105.33
 31
0.0
  0
LINE
  8
0
 62
     0
 10
64.244
 20
105.33
 30
0.0
 11
50.2447
 21
105.33
 31
0.0
  0
LINE
  8
0
 62
     0
 10
107.395
 20
110.093
 30
0.0
 11
107.395
 21
109.094
 31
0.0
  0
LINE
  8
0
 62
     0
 10
107.395
 20
109.094
 30
0.0
 11
106.594
 21
109.094
 31
0.0
  0
LINE
  8
0
 62
     0
 10
106.594
 20
109.094
 30
0.0
 11
106.594
 21
105.993
 31
0.0
  0
LINE
  8
0
 62
     0
 10
106.594
 20
105.993
 30
0.0
 11
107.395
 21
105.993
 31
0.0
  0
LINE
  8
0
 62
     0
 10
107.395
 20
105.993
 30
0.0
 11
107.395
 21
100.193
 31
0.0
  0
LINE
  8
0
 62
     0
 10
107.395
 20
100.193
 30
0.0
 11
106.594
 21
100.193
 31
0.0
  0
LINE
  8
0
 62
     0
 10
106.594
 20
100.193
 30
0.0
 11
106.594
 21
97.094
 31
0.0
  0
LINE
  8
0
 62
     0
 10
106.594
 20
97.094
 30
0.0
 11
107.395
 21
97.094
 31
0.0
  0
LINE
  8
0
 62
     0
 10
107.395
 20
97.094
 30
0.0
 11
107.395
 21
96.0935
 31
0.0
  0
LINE
  8
0
 62
     0
 10
107.395
 20
96.0935
 30
0.0
 11
121.394
 21
96.0935
 31
0.0
  0
LINE
  8
0
 62
     0
 10
121.394
 20
96.0935
 30
0.0
 11
121.394
 21
97.094
 31
0.0
  0
LINE
  8
0
 62
     0
 10
121.394
 20
97.094
 30
0.0
 11
122.195
 21
97.094
 31
0.0
  0
LINE
  8
0
 62
     0
 10
122.195
 20
97.094
 30
0.0
 11
122.195
 21
100.193
 31
0.0
  0
LINE
  8
0
 62
     0
 10
122.195
 20
100.193
 30
0.0
 11
121.394
 21
100.193
 31
0.0
  0
LINE
  8
0
 62
     0
 10
121.394
 20
100.193
 30
0.0
 11
121.394
 21
105.993
 31
0.0
  0
LINE
  8
0
 62
     0
 10
121.394
 20
105.993
 30
0.0
 11
122.195
 21
105.993
 31
0.0
  0
LINE
  8
0
 62
     0
 10
122.195
 20
105.993
 30
0.0
 11
122.195
 21
109.094
 31
0.0
  0
LINE
  8
0
 62
     0
 10
122.195
 20
109.094
 30
0.0
 11
121.394
 21
109.094
 31
0.0
  0
LINE
  8
0
 62
     0
 10
121.394
 20
109.094
 30
0.0
 11
121.394
 21
110.093
 31
0.0
  0
LINE
  8
0
 62
     0
 10
121.394
 20
110.093
 30
0.0
 11
107.395
 21
110.093
 31
0.0
  0
LINE
  8
0
 62
     0
 10
88.3447
 20
112.474
 30
0.0
 11
88.3447
 21
111.475
 31
0.0
  0
LINE
  8
0
 62
     0
 10
88.3447
 20
111.475
 30
0.0
 11
87.5439
 21
111.475
 31
0.0
  0
LINE
  8
0
 62
     0
 10
87.5439
 20
111.475
 30
0.0
 11
87.5439
 21
108.374
 31
0.0
  0
LINE
  8
0
 62
     0
 10
87.5439
 20
108.374
 30
0.0
 11
88.3447
 21
108.374
 31
0.0
  0
LINE
  8
0
 62
     0
 10
88.3447
 20
108.374
 30
0.0
 11
88.3447
 21
102.574
 31
0.0
  0
LINE
  8
0
 62
     0
 10
88.3447
 20
102.574
 30
0.0
 11
87.5439
 21
102.574
 31
0.0
  0
LINE
  8
0
 62
     0
 10
87.5439
 20
102.574
 30
0.0
 11
87.5439
 21
99.4752
 31
0.0
  0
LINE
  8
0
 62
     0
 10
87.5439
 20
99.4752
 30
0.0
 11
88.3447
 21
99.4752
 31
0.0
  0
LINE
  8
0
 62
     0
 10
88.3447
 20
99.4752
 30
0.0
 11
88.3447
 21
98.4747
 31
0.0
  0
LINE
  8
0
 62
     0
 10
88.3447
 20
98.4747
 30
0.0
 11
102.344
 21
98.4747
 31
0.0
  0
LINE
  8
0
 62
     0
 10
102.344
 20
98.4747
 30
0.0
 11
102.344
 21
99.4752
 31
0.0
  0
LINE
  8
0
 62
     0
 10
102.344
 20
99.4752
 30
0.0
 11
103.145
 21
99.4752
 31
0.0
  0
LINE
  8
0
 62
     0
 10
103.145
 20
99.4752
 30
0.0
 11
103.145
 21
102.574
 31
0.0
  0
LINE
  8
0
 62
     0
 10
103.145
 20
102.574
 30
0.0
 11
102.344
 21
102.574
 31
0.0
  0
LINE
  8
0
 62
     0
 10
102.344
 20
102.574
 30
0.0
 11
102.344
 21
108.374
 31
0.0
  0
LINE
  8
0
 62
     0
 10
102.344
 20
108.374
 30
0.0
 11
103.145
 21
108.374
 31
0.0
  0
LINE
  8
0
 62
     0
 10
103.145
 20
108.374
 30
0.0
 11
103.145
 21
111.475
 31
0.0
  0
LINE
  8
0
 62
     0
 10
103.145
 20
111.475
 30
0.0
 11
102.344
 21
111.475
 31
0.0
  0
LINE
  8
0
 62
     0
 10
102.344
 20
111.475
 30
0.0
 11
102.344
 21
112.474
 31
0.0
  0
LINE
  8
0
 62
     0
 10
102.344
 20
112.474
 30
0.0
 11
88.3447
 21
112.474
 31
0.0
  0
LINE
  8
0
 62
     0
 10
31.1947
 20
114.855
 30
0.0
 11
31.1947
 21
113.855
 31
0.0
  0
LINE
  8
0
 62
     0
 10
31.1947
 20
113.855
 30
0.0
 11
30.394
 21
113.855
 31
0.0
  0
LINE
  8
0
 62
     0
 10
30.394
 20
113.855
 30
0.0
 11
30.394
 21
110.756
 31
0.0
  0
LINE
  8
0
 62
     0
 10
30.394
 20
110.756
 30
0.0
 11
31.1947
 21
110.756
 31
0.0
  0
LINE
  8
0
 62
     0
 10
31.1947
 20
110.756
 30
0.0
 11
31.1947
 21
104.956
 31
0.0
  0
LINE
  8
0
 62
     0
 10
31.1947
 20
104.956
 30
0.0
 11
30.394
 21
104.956
 31
0.0
  0
LINE
  8
0
 62
     0
 10
30.394
 20
104.956
 30
0.0
 11
30.394
 21
101.855
 31
0.0
  0
LINE
  8
0
 62
     0
 10
30.394
 20
101.855
 30
0.0
 11
31.1947
 21
101.855
 31
0.0
  0
LINE
  8
0
 62
     0
 10
31.1947
 20
101.855
 30
0.0
 11
31.1947
 21
100.856
 31
0.0
  0
LINE
  8
0
 62
     0
 10
31.1947
 20
100.856
 30
0.0
 11
45.194
 21
100.856
 31
0.0
  0
LINE
  8
0
 62
     0
 10
45.194
 20
100.856
 30
0.0
 11
45.194
 21
101.855
 31
0.0
  0
LINE
  8
0
 62
     0
 10
45.194
 20
101.855
 30
0.0
 11
45.9948
 21
101.855
 31
0.0
  0
LINE
  8
0
 62
     0
 10
45.9948
 20
101.855
 30
0.0
 11
45.9948
 21
104.956
 31
0.0
  0
LINE
  8
0
 62
     0
 10
45.9948
 20
104.956
 30
0.0
 11
45.194
 21
104.956
 31
0.0
  0
LINE
  8
0
 62
     0
 10
45.194
 20
104.956
 30
0.0
 11
45.194
 21
110.756
 31
0.0
  0
LINE
  8
0
 62
     0
 10
45.194
 20
110.756
 30
0.0
 11
45.9948
 21
110.756
 31
0.0
  0
LINE
  8
0
 62
     0
 10
45.9948
 20
110.756
 30
0.0
 11
45.9948
 21
113.855
 31
0.0
  0
LINE
  8
0
 62
     0
 10
45.9948
 20
113.855
 30
0.0
 11
45.194
 21
113.855
 31
0.0
  0
LINE
  8
0
 62
     0
 10
45.194
 20
113.855
 30
0.0
 11
45.194
 21
114.855
 31
0.0
  0
LINE
  8
0
 62
     0
 10
45.194
 20
114.855
 30
0.0
 11
31.1947
 21
114.855
 31
0.0
  0
LINE
  8
0
 62
     0
 10
69.2947
 20
114.855
 30
0.0
 11
69.2947
 21
113.855
 31
0.0
  0
LINE
  8
0
 62
     0
 10
69.2947
 20
113.855
 30
0.0
 11
68.4939
 21
113.855
 31
0.0
  0
LINE
  8
0
 62
     0
 10
68.4939
 20
113.855
 30
0.0
 11
68.4939
 21
110.756
 31
0.0
  0
LINE
  8
0
 62
     0
 10
68.4939
 20
110.756
 30
0.0
 11
69.2947
 21
110.756
 31
0.0
  0
LINE
  8
0
 62
     0
 10
69.2947
 20
110.756
 30
0.0
 11
69.2947
 21
104.956
 31
0.0
  0
LINE
  8
0
 62
     0
 10
69.2947
 20
104.956
 30
0.0
 11
68.4939
 21
104.956
 31
0.0
  0
LINE
  8
0
 62
     0
 10
68.4939
 20
104.956
 30
0.0
 11
68.4939
 21
101.855
 31
0.0
  0
LINE
  8
0
 62
     0
 10
68.4939
 20
101.855
 30
0.0
 11
69.2947
 21
101.855
 31
0.0
  0
LINE
  8
0
 62
     0
 10
69.2947
 20
101.855
 30
0.0
 11
69.2947
 21
100.856
 31
0.0
  0
LINE
  8
0
 62
     0
 10
69.2947
 20
100.856
 30
0.0
 11
83.294
 21
100.856
 31
0.0
  0
LINE
  8
0
 62
     0
 10
83.294
 20
100.856
 30
0.0
 11
83.294
 21
101.855
 31
0.0
  0
LINE
  8
0
 62
     0
 10
83.294
 20
101.855
 30
0.0
 11
84.0948
 21
101.855
 31
0.0
  0
LINE
  8
0
 62
     0
 10
84.0948
 20
101.855
 30
0.0
 11
84.0948
 21
104.956
 31
0.0
  0
LINE
  8
0
 62
     0
 10
84.0948
 20
104.956
 30
0.0
 11
83.294
 21
104.956
 31
0.0
  0
LINE
  8
0
 62
     0
 10
83.294
 20
104.956
 30
0.0
 11
83.294
 21
110.756
 31
0.0
  0
LINE
  8
0
 62
     0
 10
83.294
 20
110.756
 30
0.0
 11
84.0948
 21
110.756
 31
0.0
  0
LINE
  8
0
 62
     0
 10
84.0948
 20
110.756
 30
0.0
 11
84.0948
 21
113.855
 31
0.0
  0
LINE
  8
0
 62
     0
 10
84.0948
 20
113.855
 30
0.0
 11
83.294
 21
113.855
 31
0.0
  0
LINE
  8
0
 62
     0
 10
83.294
 20
113.855
 30
0.0
 11
83.294
 21
114.855
 31
0.0
  0
LINE
  8
0
 62
     0
 10
83.294
 20
114.855
 30
0.0
 11
69.2947
 21
114.855
 31
0.0
  0
LINE
  8
0
 62
     0
 10
50.2447
 20
124.38
 30
0.0
 11
50.2447
 21
123.38
 31
0.0
  0
LINE
  8
0
 62
     0
 10
50.2447
 20
123.38
 30
0.0
 11
49.4439
 21
123.38
 31
0.0
  0
LINE
  8
0
 62
     0
 10
49.4439
 20
123.38
 30
0.0
 11
49.4439
 21
120.281
 31
0.0
  0
LINE
  8
0
 62
     0
 10
49.4439
 20
120.281
 30
0.0
 11
50.2447
 21
120.281
 31
0.0
  0
LINE
  8
0
 62
     0
 10
50.2447
 20
120.281
 30
0.0
 11
50.2447
 21
114.481
 31
0.0
  0
LINE
  8
0
 62
     0
 10
50.2447
 20
114.481
 30
0.0
 11
49.4439
 21
114.481
 31
0.0
  0
LINE
  8
0
 62
     0
 10
49.4439
 20
114.481
 30
0.0
 11
49.4439
 21
111.38
 31
0.0
  0
LINE
  8
0
 62
     0
 10
49.4439
 20
111.38
 30
0.0
 11
50.2447
 21
111.38
 31
0.0
  0
LINE
  8
0
 62
     0
 10
50.2447
 20
111.38
 30
0.0
 11
50.2447
 21
110.381
 31
0.0
  0
LINE
  8
0
 62
     0
 10
50.2447
 20
110.381
 30
0.0
 11
64.244
 21
110.381
 31
0.0
  0
LINE
  8
0
 62
     0
 10
64.244
 20
110.381
 30
0.0
 11
64.244
 21
111.38
 31
0.0
  0
LINE
  8
0
 62
     0
 10
64.244
 20
111.38
 30
0.0
 11
65.0448
 21
111.38
 31
0.0
  0
LINE
  8
0
 62
     0
 10
65.0448
 20
111.38
 30
0.0
 11
65.0448
 21
114.481
 31
0.0
  0
LINE
  8
0
 62
     0
 10
65.0448
 20
114.481
 30
0.0
 11
64.244
 21
114.481
 31
0.0
  0
LINE
  8
0
 62
     0
 10
64.244
 20
114.481
 30
0.0
 11
64.244
 21
120.281
 31
0.0
  0
LINE
  8
0
 62
     0
 10
64.244
 20
120.281
 30
0.0
 11
65.0448
 21
120.281
 31
0.0
  0
LINE
  8
0
 62
     0
 10
65.0448
 20
120.281
 30
0.0
 11
65.0448
 21
123.38
 31
0.0
  0
LINE
  8
0
 62
     0
 10
65.0448
 20
123.38
 30
0.0
 11
64.244
 21
123.38
 31
0.0
  0
LINE
  8
0
 62
     0
 10
64.244
 20
123.38
 30
0.0
 11
64.244
 21
124.38
 31
0.0
  0
LINE
  8
0
 62
     0
 10
64.244
 20
124.38
 30
0.0
 11
50.2447
 21
124.38
 31
0.0
  0
LINE
  8
0
 62
     0
 10
107.395
 20
129.143
 30
0.0
 11
107.395
 21
128.144
 31
0.0
  0
LINE
  8
0
 62
     0
 10
107.395
 20
128.144
 30
0.0
 11
106.594
 21
128.144
 31
0.0
  0
LINE
  8
0
 62
     0
 10
106.594
 20
128.144
 30
0.0
 11
106.594
 21
125.043
 31
0.0
  0
LINE
  8
0
 62
     0
 10
106.594
 20
125.043
 30
0.0
 11
107.395
 21
125.043
 31
0.0
  0
LINE
  8
0
 62
     0
 10
107.395
 20
125.043
 30
0.0
 11
107.395
 21
119.243
 31
0.0
  0
LINE
  8
0
 62
     0
 10
107.395
 20
119.243
 30
0.0
 11
106.594
 21
119.243
 31
0.0
  0
LINE
  8
0
 62
     0
 10
106.594
 20
119.243
 30
0.0
 11
106.594
 21
116.144
 31
0.0
  0
LINE
  8
0
 62
     0
 10
106.594
 20
116.144
 30
0.0
 11
107.395
 21
116.144
 31
0.0
  0
LINE
  8
0
 62
     0
 10
107.395
 20
116.144
 30
0.0
 11
107.395
 21
115.143
 31
0.0
  0
LINE
  8
0
 62
     0
 10
107.395
 20
115.143
 30
0.0
 11
121.394
 21
115.143
 31
0.0
  0
LINE
  8
0
 62
     0
 10
121.394
 20
115.143
 30
0.0
 11
121.394
 21
116.144
 31
0.0
  0
LINE
  8
0
 62
     0
 10
121.394
 20
116.144
 30
0.0
 11
122.195
 21
116.144
 31
0.0
  0
LINE
  8
0
 62
     0
 10
122.195
 20
116.144
 30
0.0
 11
122.195
 21
119.243
 31
0.0
  0
LINE
  8
0
 62
     0
 10
122.195
 20
119.243
 30
0.0
 11
121.394
 21
119.243
 31
0.0
  0
LINE
  8
0
 62
     0
 10
121.394
 20
119.243
 30
0.0
 11
121.394
 21
125.043
 31
0.0
  0
LINE
  8
0
 62
     0
 10
121.394
 20
125.043
 30
0.0
 11
122.195
 21
125.043
 31
0.0
  0
LINE
  8
0
 62
     0
 10
122.195
 20
125.043
 30
0.0
 11
122.195
 21
128.144
 31
0.0
  0
LINE
  8
0
 62
     0
 10
122.195
 20
128.144
 30
0.0
 11
121.394
 21
128.144
 31
0.0
  0
LINE
  8
0
 62
     0
 10
121.394
 20
128.144
 30
0.0
 11
121.394
 21
129.143
 31
0.0
  0
LINE
  8
0
 62
     0
 10
121.394
 20
129.143
 30
0.0
 11
107.395
 21
129.143
 31
0.0
  0
LINE
  8
0
 62
     0
 10
88.3447
 20
131.524
 30
0.0
 11
88.3447
 21
130.525
 31
0.0
  0
LINE
  8
0
 62
     0
 10
88.3447
 20
130.525
 30
0.0
 11
87.5439
 21
130.525
 31
0.0
  0
LINE
  8
0
 62
     0
 10
87.5439
 20
130.525
 30
0.0
 11
87.5439
 21
127.424
 31
0.0
  0
LINE
  8
0
 62
     0
 10
87.5439
 20
127.424
 30
0.0
 11
88.3447
 21
127.424
 31
0.0
  0
LINE
  8
0
 62
     0
 10
88.3447
 20
127.424
 30
0.0
 11
88.3447
 21
121.624
 31
0.0
  0
LINE
  8
0
 62
     0
 10
88.3447
 20
121.624
 30
0.0
 11
87.5439
 21
121.624
 31
0.0
  0
LINE
  8
0
 62
     0
 10
87.5439
 20
121.624
 30
0.0
 11
87.5439
 21
118.525
 31
0.0
  0
LINE
  8
0
 62
     0
 10
87.5439
 20
118.525
 30
0.0
 11
88.3447
 21
118.525
 31
0.0
  0
LINE
  8
0
 62
     0
 10
88.3447
 20
118.525
 30
0.0
 11
88.3447
 21
117.525
 31
0.0
  0
LINE
  8
0
 62
     0
 10
88.3447
 20
117.525
 30
0.0
 11
102.344
 21
117.525
 31
0.0
  0
LINE
  8
0
 62
     0
 10
102.344
 20
117.525
 30
0.0
 11
102.344
 21
118.525
 31
0.0
  0
LINE
  8
0
 62
     0
 10
102.344
 20
118.525
 30
0.0
 11
103.145
 21
118.525
 31
0.0
  0
LINE
  8
0
 62
     0
 10
103.145
 20
118.525
 30
0.0
 11
103.145
 21
121.624
 31
0.0
  0
LINE
  8
0
 62
     0
 10
103.145
 20
121.624
 30
0.0
 11
102.344
 21
121.624
 31
0.0
  0
LINE
  8
0
 62
     0
 10
102.344
 20
121.624
 30
0.0
 11
102.344
 21
127.424
 31
0.0
  0
LINE
  8
0
 62
     0
 10
102.344
 20
127.424
 30
0.0
 11
103.145
 21
127.424
 31
0.0
  0
LINE
  8
0
 62
     0
 10
103.145
 20
127.424
 30
0.0
 11
103.145
 21
130.525
 31
0.0
  0
LINE
  8
0
 62
     0
 10
103.145
 20
130.525
 30
0.0
 11
102.344
 21
130.525
 31
0.0
  0
LINE
  8
0
 62
     0
 10
102.344
 20
130.525
 30
0.0
 11
102.344
 21
131.524
 31
0.0
  0
LINE
  8
0
 62
     0
 10
102.344
 20
131.524
 30
0.0
 11
88.3447
 21
131.524
 31
0.0
  0
LINE
  8
0
 62
     0
 10
69.2947
 20
133.905
 30
0.0
 11
69.2947
 21
132.905
 31
0.0
  0
LINE
  8
0
 62
     0
 10
69.2947
 20
132.905
 30
0.0
 11
68.4939
 21
132.905
 31
0.0
  0
LINE
  8
0
 62
     0
 10
68.4939
 20
132.905
 30
0.0
 11
68.4939
 21
129.806
 31
0.0
  0
LINE
  8
0
 62
     0
 10
68.4939
 20
129.806
 30
0.0
 11
69.2947
 21
129.806
 31
0.0
  0
LINE
  8
0
 62
     0
 10
69.2947
 20
129.806
 30
0.0
 11
69.2947
 21
124.006
 31
0.0
  0
LINE
  8
0
 62
     0
 10
69.2947
 20
124.006
 30
0.0
 11
68.4939
 21
124.006
 31
0.0
  0
LINE
  8
0
 62
     0
 10
68.4939
 20
124.006
 30
0.0
 11
68.4939
 21
120.905
 31
0.0
  0
LINE
  8
0
 62
     0
 10
68.4939
 20
120.905
 30
0.0
 11
69.2947
 21
120.905
 31
0.0
  0
LINE
  8
0
 62
     0
 10
69.2947
 20
120.905
 30
0.0
 11
69.2947
 21
119.906
 31
0.0
  0
LINE
  8
0
 62
     0
 10
69.2947
 20
119.906
 30
0.0
 11
83.294
 21
119.906
 31
0.0
  0
LINE
  8
0
 62
     0
 10
83.294
 20
119.906
 30
0.0
 11
83.294
 21
120.905
 31
0.0
  0
LINE
  8
0
 62
     0
 10
83.294
 20
120.905
 30
0.0
 11
84.0948
 21
120.905
 31
0.0
  0
LINE
  8
0
 62
     0
 10
84.0948
 20
120.905
 30
0.0
 11
84.0948
 21
124.006
 31
0.0
  0
LINE
  8
0
 62
     0
 10
84.0948
 20
124.006
 30
0.0
 11
83.294
 21
124.006
 31
0.0
  0
LINE
  8
0
 62
     0
 10
83.294
 20
124.006
 30
0.0
 11
83.294
 21
129.806
 31
0.0
  0
LINE
  8
0
 62
     0
 10
83.294
 20
129.806
 30
0.0
 11
84.0948
 21
129.806
 31
0.0
  0
LINE
  8
0
 62
     0
 10
84.0948
 20
129.806
 30
0.0
 11
84.0948
 21
132.905
 31
0.0
  0
LINE
  8
0
 62
     0
 10
84.0948
 20
132.905
 30
0.0
 11
83.294
 21
132.905
 31
0.0
  0
LINE
  8
0
 62
     0
 10
83.294
 20
132.905
 30
0.0
 11
83.294
 21
133.905
 31
0.0
  0
LINE
  8
0
 62
     0
 10
83.294
 20
133.905
 30
0.0
 11
69.2947
 21
133.905
 31
0.0
  0
ENDSEC
  0
EOF
