0
SECTION
2
HEADER
9
$INSUNITS
70
4
0
ENDSEC
0
SECTION
2
TABLES
0
TABLE
2
LTYPE
0
LTYPE
72
65
70
64
2
CONTINUOUS
3
______
73
0
40
0
0
ENDTAB
0
TABLE
2
LAYER
0
ENDTAB
0
ENDSEC
0
SECTION
2
ENTITIES
0
LINE
8
0
10
111.0137482
20
-145.3620911
11
54.8507125
21
-159.40285
0
ARC
8
0
10
50
20
-140
40
20
50
145.3048464
51
284.0362435
0
LINE
8
0
10
33.5561562
20
-128.6158004
11
78.5561562
21
-63.6158004
0
ARC
8
0
10
95
20
-75
40
20
50
439.6951534
51
145.3048465
0
LINE
8
0
10
98.5777088
20
-55.3226018
11
153.5777088
21
-65.3226018
0
ARC
8
0
10
150
20
-85
40
20
50
360
51
79.6951535
0
LINE
8
0
10
170
20
-85
11
170
21
-102.9490947
0
LINE
8
0
10
176.1507003
20
-117.3781244
11
219.2744011
21
-158.7691982
0
ARC
8
0
10
205.4251017
20
-173.1982282
40
20
50
334.4439545
51
46.1744492
0
LINE
8
0
10
223.4683764
20
-181.8261038
11
213.0432747
21
-203.6278756
0
ARC
8
0
10
195
20
-195
40
20
50
220.9143832
51
334.4439546
0
LINE
8
0
10
179.8862183
20
-208.0986108
11
130.9782425
21
-151.666331
0
ARC
8
0
10
190
20
-102.9490947
40
20
50
180
51
226.1744481
0
ARC
8
0
10
115.8644602
20
-164.7649412
40
20
50
40.9143809
51
104.0362421
0
LINE
8
0
10
41.25
20
-138.25
11
58.75
21
-138.25
0
LINE
8
0
10
58.75
20
-138.25
11
58.75
21
-121.75
0
LINE
8
0
10
58.75
20
-121.75
11
41.25
21
-121.75
0
LINE
8
0
10
41.25
20
-121.75
11
41.25
21
-138.25
0
LINE
8
0
10
61.25
20
-148.25
11
78.75
21
-148.25
0
LINE
8
0
10
78.75
20
-148.25
11
78.75
21
-131.75
0
LINE
8
0
10
78.75
20
-131.75
11
61.25
21
-131.75
0
LINE
8
0
10
61.25
20
-131.75
11
61.25
21
-148.25
0
LINE
8
0
10
61.25
20
-128.25
11
78.75
21
-128.25
0
LINE
8
0
10
78.75
20
-128.25
11
78.75
21
-111.75
0
LINE
8
0
10
78.75
20
-111.75
11
61.25
21
-111.75
0
LINE
8
0
10
61.25
20
-111.75
11
61.25
21
-128.25
0
LINE
8
0
10
61.25
20
-108.25
11
78.75
21
-108.25
0
LINE
8
0
10
78.75
20
-108.25
11
78.75
21
-91.75
0
LINE
8
0
10
78.75
20
-91.75
11
61.25
21
-91.75
0
LINE
8
0
10
61.25
20
-91.75
11
61.25
21
-108.25
0
LINE
8
0
10
81.25
20
-133.25
11
98.75
21
-133.25
0
LINE
8
0
10
98.75
20
-133.25
11
98.75
21
-116.75
0
LINE
8
0
10
98.75
20
-116.75
11
81.25
21
-116.75
0
LINE
8
0
10
81.25
20
-116.75
11
81.25
21
-133.25
0
LINE
8
0
10
81.25
20
-113.25
11
98.75
21
-113.25
0
LINE
8
0
10
98.75
20
-113.25
11
98.75
21
-96.75
0
LINE
8
0
10
98.75
20
-96.75
11
81.25
21
-96.75
0
LINE
8
0
10
81.25
20
-96.75
11
81.25
21
-113.25
0
LINE
8
0
10
81.25
20
-93.25
11
98.75
21
-93.25
0
LINE
8
0
10
98.75
20
-93.25
11
98.75
21
-76.75
0
LINE
8
0
10
98.75
20
-76.75
11
81.25
21
-76.75
0
LINE
8
0
10
81.25
20
-76.75
11
81.25
21
-93.25
0
LINE
8
0
10
101.25
20
-123.25
11
118.75
21
-123.25
0
LINE
8
0
10
118.75
20
-123.25
11
118.75
21
-106.75
0
LINE
8
0
10
118.75
20
-106.75
11
101.25
21
-106.75
0
LINE
8
0
10
101.25
20
-106.75
11
101.25
21
-123.25
0
LINE
8
0
10
101.25
20
-103.25
11
118.75
21
-103.25
0
LINE
8
0
10
118.75
20
-103.25
11
118.75
21
-86.75
0
LINE
8
0
10
118.75
20
-86.75
11
101.25
21
-86.75
0
LINE
8
0
10
101.25
20
-86.75
11
101.25
21
-103.25
0
LINE
8
0
10
101.25
20
-83.25
11
118.75
21
-83.25
0
LINE
8
0
10
118.75
20
-83.25
11
118.75
21
-66.75
0
LINE
8
0
10
118.75
20
-66.75
11
101.25
21
-66.75
0
LINE
8
0
10
101.25
20
-66.75
11
101.25
21
-83.25
0
LINE
8
0
10
121.25
20
-128.25
11
138.75
21
-128.25
0
LINE
8
0
10
138.75
20
-128.25
11
138.75
21
-111.75
0
LINE
8
0
10
138.75
20
-111.75
11
121.25
21
-111.75
0
LINE
8
0
10
121.25
20
-111.75
11
121.25
21
-128.25
0
LINE
8
0
10
121.25
20
-108.25
11
138.75
21
-108.25
0
LINE
8
0
10
138.75
20
-108.25
11
138.75
21
-91.75
0
LINE
8
0
10
138.75
20
-91.75
11
121.25
21
-91.75
0
LINE
8
0
10
121.25
20
-91.75
11
121.25
21
-108.25
0
LINE
8
0
10
121.25
20
-88.25
11
138.75
21
-88.25
0
LINE
8
0
10
138.75
20
-88.25
11
138.75
21
-71.75
0
LINE
8
0
10
138.75
20
-71.75
11
121.25
21
-71.75
0
LINE
8
0
10
121.25
20
-71.75
11
121.25
21
-88.25
0
LINE
8
0
10
141.25
20
-153.25
11
158.75
21
-153.25
0
LINE
8
0
10
158.75
20
-153.25
11
158.75
21
-136.75
0
LINE
8
0
10
158.75
20
-136.75
11
141.25
21
-136.75
0
LINE
8
0
10
141.25
20
-136.75
11
141.25
21
-153.25
0
LINE
8
0
10
141.25
20
-133.25
11
158.75
21
-133.25
0
LINE
8
0
10
158.75
20
-133.25
11
158.75
21
-116.75
0
LINE
8
0
10
158.75
20
-116.75
11
141.25
21
-116.75
0
LINE
8
0
10
141.25
20
-116.75
11
141.25
21
-133.25
0
LINE
8
0
10
141.25
20
-113.25
11
158.75
21
-113.25
0
LINE
8
0
10
158.75
20
-113.25
11
158.75
21
-96.75
0
LINE
8
0
10
158.75
20
-96.75
11
141.25
21
-96.75
0
LINE
8
0
10
141.25
20
-96.75
11
141.25
21
-113.25
0
LINE
8
0
10
141.25
20
-93.25
11
158.75
21
-93.25
0
LINE
8
0
10
158.75
20
-93.25
11
158.75
21
-76.75
0
LINE
8
0
10
158.75
20
-76.75
11
141.25
21
-76.75
0
LINE
8
0
10
141.25
20
-76.75
11
141.25
21
-93.25
0
LINE
8
0
10
192.5644252
20
-206.7767982
11
206.899586
21
-196.7392105
0
LINE
8
0
10
206.899586
20
-196.7392105
11
197.4355748
21
-183.2232018
0
LINE
8
0
10
197.4355748
20
-183.2232018
11
183.100414
21
-193.2607895
0
LINE
8
0
10
183.100414
20
-193.2607895
11
192.5644252
21
-206.7767982
0
LINE
8
0
10
181.5550037
20
-189.7420653
11
194.9607815
21
-178.4932822
0
LINE
8
0
10
194.9607815
20
-178.4932822
11
184.3547859
21
-165.8535489
0
LINE
8
0
10
184.3547859
20
-165.8535489
11
170.9490081
21
-177.102332
0
LINE
8
0
10
170.9490081
20
-177.102332
11
181.5550037
21
-189.7420653
0
LINE
8
0
10
169.1028016
20
-173.7316891
11
181.4771703
21
-161.3573204
0
LINE
8
0
10
181.4771703
20
-161.3573204
11
169.8099084
21
-149.6900585
0
LINE
8
0
10
169.8099084
20
-149.6900585
11
157.4355397
21
-162.0644272
0
LINE
8
0
10
157.4355397
20
-162.0644272
11
169.1028016
21
-173.7316891
0
LINE
8
0
10
203.1954313
20
-185.0157394
11
217.3532287
21
-174.7294974
0
LINE
8
0
10
217.3532287
20
-174.7294974
11
207.6547721
21
-161.380717
0
LINE
8
0
10
207.6547721
20
-161.380717
11
193.4969747
21
-171.666959
0
LINE
8
0
10
193.4969747
20
-171.666959
11
203.1954313
21
-185.0157394
0
LINE
8
0
10
191.8903896
20
-168.1757418
11
205.0978072
21
-156.6947088
0
LINE
8
0
10
205.0978072
20
-156.6947088
11
194.2728332
21
-144.2420008
0
LINE
8
0
10
194.2728332
20
-144.2420008
11
181.0654156
21
-155.7230338
0
LINE
8
0
10
181.0654156
20
-155.7230338
11
191.8903896
21
-168.1757418
0
ENDSEC
0
EOF