0
SECTION
2
HEADER
9
$INSUNITS
70
4
0
ENDSEC
0
SECTION
2
TABLES
0
TABLE
2
LTYPE
0
LTYPE
72
65
70
64
2
CONTINUOUS
3
______
73
0
40
0
0
ENDTAB
0
TABLE
2
LAYER
0
ENDTAB
0
ENDSEC
0
SECTION
2
ENTITIES
0
LINE
8
0
10
378.9862518
20
-145.3620911
11
435.1492875
21
-159.40285
0
ARC
8
0
10
440
20
-140
40
20
50
255.9637565
51
394.6951536
0
LINE
8
0
10
456.4438438
20
-128.6158004
11
411.4438438
21
-63.6158004
0
ARC
8
0
10
395
20
-75
40
20
50
34.6951535
51
100.3048466
0
LINE
8
0
10
391.4222912
20
-55.3226018
11
336.4222912
21
-65.3226018
0
ARC
8
0
10
340
20
-85
40
20
50
100.3048465
51
180
0
LINE
8
0
10
320
20
-85
11
320
21
-102.9490947
0
LINE
8
0
10
313.8492997
20
-117.3781244
11
270.7255989
21
-158.7691982
0
ARC
8
0
10
284.5748983
20
-173.1982282
40
20
50
133.8255508
51
205.5560455
0
LINE
8
0
10
266.5316236
20
-181.8261038
11
276.9567253
21
-203.6278756
0
ARC
8
0
10
295
20
-195
40
20
50
205.5560454
51
319.0856168
0
LINE
8
0
10
310.1137817
20
-208.0986108
11
359.0217575
21
-151.666331
0
ARC
8
0
10
300
20
-102.9490947
40
20
50
313.8255519
51
0
0
ARC
8
0
10
374.1355398
20
-164.7649412
40
20
50
75.9637579
51
139.0856191
0
LINE
8
0
10
431.25
20
-138.25
11
448.75
21
-138.25
0
LINE
8
0
10
448.75
20
-138.25
11
448.75
21
-121.75
0
LINE
8
0
10
448.75
20
-121.75
11
431.25
21
-121.75
0
LINE
8
0
10
431.25
20
-121.75
11
431.25
21
-138.25
0
LINE
8
0
10
411.25
20
-148.25
11
428.75
21
-148.25
0
LINE
8
0
10
428.75
20
-148.25
11
428.75
21
-131.75
0
LINE
8
0
10
428.75
20
-131.75
11
411.25
21
-131.75
0
LINE
8
0
10
411.25
20
-131.75
11
411.25
21
-148.25
0
LINE
8
0
10
411.25
20
-128.25
11
428.75
21
-128.25
0
LINE
8
0
10
428.75
20
-128.25
11
428.75
21
-111.75
0
LINE
8
0
10
428.75
20
-111.75
11
411.25
21
-111.75
0
LINE
8
0
10
411.25
20
-111.75
11
411.25
21
-128.25
0
LINE
8
0
10
411.25
20
-108.25
11
428.75
21
-108.25
0
LINE
8
0
10
428.75
20
-108.25
11
428.75
21
-91.75
0
LINE
8
0
10
428.75
20
-91.75
11
411.25
21
-91.75
0
LINE
8
0
10
411.25
20
-91.75
11
411.25
21
-108.25
0
LINE
8
0
10
391.25
20
-133.25
11
408.75
21
-133.25
0
LINE
8
0
10
408.75
20
-133.25
11
408.75
21
-116.75
0
LINE
8
0
10
408.75
20
-116.75
11
391.25
21
-116.75
0
LINE
8
0
10
391.25
20
-116.75
11
391.25
21
-133.25
0
LINE
8
0
10
391.25
20
-113.25
11
408.75
21
-113.25
0
LINE
8
0
10
408.75
20
-113.25
11
408.75
21
-96.75
0
LINE
8
0
10
408.75
20
-96.75
11
391.25
21
-96.75
0
LINE
8
0
10
391.25
20
-96.75
11
391.25
21
-113.25
0
LINE
8
0
10
391.25
20
-93.25
11
408.75
21
-93.25
0
LINE
8
0
10
408.75
20
-93.25
11
408.75
21
-76.75
0
LINE
8
0
10
408.75
20
-76.75
11
391.25
21
-76.75
0
LINE
8
0
10
391.25
20
-76.75
11
391.25
21
-93.25
0
LINE
8
0
10
371.25
20
-123.25
11
388.75
21
-123.25
0
LINE
8
0
10
388.75
20
-123.25
11
388.75
21
-106.75
0
LINE
8
0
10
388.75
20
-106.75
11
371.25
21
-106.75
0
LINE
8
0
10
371.25
20
-106.75
11
371.25
21
-123.25
0
LINE
8
0
10
371.25
20
-103.25
11
388.75
21
-103.25
0
LINE
8
0
10
388.75
20
-103.25
11
388.75
21
-86.75
0
LINE
8
0
10
388.75
20
-86.75
11
371.25
21
-86.75
0
LINE
8
0
10
371.25
20
-86.75
11
371.25
21
-103.25
0
LINE
8
0
10
371.25
20
-83.25
11
388.75
21
-83.25
0
LINE
8
0
10
388.75
20
-83.25
11
388.75
21
-66.75
0
LINE
8
0
10
388.75
20
-66.75
11
371.25
21
-66.75
0
LINE
8
0
10
371.25
20
-66.75
11
371.25
21
-83.25
0
LINE
8
0
10
351.25
20
-128.25
11
368.75
21
-128.25
0
LINE
8
0
10
368.75
20
-128.25
11
368.75
21
-111.75
0
LINE
8
0
10
368.75
20
-111.75
11
351.25
21
-111.75
0
LINE
8
0
10
351.25
20
-111.75
11
351.25
21
-128.25
0
LINE
8
0
10
351.25
20
-108.25
11
368.75
21
-108.25
0
LINE
8
0
10
368.75
20
-108.25
11
368.75
21
-91.75
0
LINE
8
0
10
368.75
20
-91.75
11
351.25
21
-91.75
0
LINE
8
0
10
351.25
20
-91.75
11
351.25
21
-108.25
0
LINE
8
0
10
351.25
20
-88.25
11
368.75
21
-88.25
0
LINE
8
0
10
368.75
20
-88.25
11
368.75
21
-71.75
0
LINE
8
0
10
368.75
20
-71.75
11
351.25
21
-71.75
0
LINE
8
0
10
351.25
20
-71.75
11
351.25
21
-88.25
0
LINE
8
0
10
331.25
20
-153.25
11
348.75
21
-153.25
0
LINE
8
0
10
348.75
20
-153.25
11
348.75
21
-136.75
0
LINE
8
0
10
348.75
20
-136.75
11
331.25
21
-136.75
0
LINE
8
0
10
331.25
20
-136.75
11
331.25
21
-153.25
0
LINE
8
0
10
331.25
20
-133.25
11
348.75
21
-133.25
0
LINE
8
0
10
348.75
20
-133.25
11
348.75
21
-116.75
0
LINE
8
0
10
348.75
20
-116.75
11
331.25
21
-116.75
0
LINE
8
0
10
331.25
20
-116.75
11
331.25
21
-133.25
0
LINE
8
0
10
331.25
20
-113.25
11
348.75
21
-113.25
0
LINE
8
0
10
348.75
20
-113.25
11
348.75
21
-96.75
0
LINE
8
0
10
348.75
20
-96.75
11
331.25
21
-96.75
0
LINE
8
0
10
331.25
20
-96.75
11
331.25
21
-113.25
0
LINE
8
0
10
331.25
20
-93.25
11
348.75
21
-93.25
0
LINE
8
0
10
348.75
20
-93.25
11
348.75
21
-76.75
0
LINE
8
0
10
348.75
20
-76.75
11
331.25
21
-76.75
0
LINE
8
0
10
331.25
20
-76.75
11
331.25
21
-93.25
0
LINE
8
0
10
283.100414
20
-196.7392105
11
297.4355748
21
-206.7767982
0
LINE
8
0
10
297.4355748
20
-206.7767982
11
306.899586
21
-193.2607895
0
LINE
8
0
10
306.899586
20
-193.2607895
11
292.5644252
21
-183.2232018
0
LINE
8
0
10
292.5644252
20
-183.2232018
11
283.100414
21
-196.7392105
0
LINE
8
0
10
295.0392185
20
-178.4932822
11
308.4449963
21
-189.7420653
0
LINE
8
0
10
308.4449963
20
-189.7420653
11
319.0509919
21
-177.102332
0
LINE
8
0
10
319.0509919
20
-177.102332
11
305.6452141
21
-165.8535489
0
LINE
8
0
10
305.6452141
20
-165.8535489
11
295.0392185
21
-178.4932822
0
LINE
8
0
10
308.5228297
20
-161.3573204
11
320.8971984
21
-173.7316891
0
LINE
8
0
10
320.8971984
20
-173.7316891
11
332.5644603
21
-162.0644272
0
LINE
8
0
10
332.5644603
20
-162.0644272
11
320.1900916
21
-149.6900585
0
LINE
8
0
10
320.1900916
20
-149.6900585
11
308.5228297
21
-161.3573204
0
LINE
8
0
10
272.6467713
20
-174.7294974
11
286.8045687
21
-185.0157394
0
LINE
8
0
10
286.8045687
20
-185.0157394
11
296.5030253
21
-171.666959
0
LINE
8
0
10
296.5030253
20
-171.666959
11
282.3452279
21
-161.380717
0
LINE
8
0
10
282.3452279
20
-161.380717
11
272.6467713
21
-174.7294974
0
LINE
8
0
10
284.9021928
20
-156.6947088
11
298.1096104
21
-168.1757418
0
LINE
8
0
10
298.1096104
20
-168.1757418
11
308.9345844
21
-155.7230338
0
LINE
8
0
10
308.9345844
20
-155.7230338
11
295.7271668
21
-144.2420008
0
LINE
8
0
10
295.7271668
20
-144.2420008
11
284.9021928
21
-156.6947088
0
ENDSEC
0
EOF