0
SECTION
2
HEADER
9
$INSUNITS
70
4
0
ENDSEC
0
SECTION
2
TABLES
0
TABLE
2
LTYPE
0
LTYPE
72
65
70
64
2
CONTINUOUS
3
______
73
0
40
0
0
ENDTAB
0
TABLE
2
LAYER
0
ENDTAB
0
ENDSEC
0
SECTION
2
ENTITIES
0
LINE
8
0
10
91.3862175
20
-16.9435666
11
-3.5777088
21
0.3226018
0
ARC
8
0
10
0
20
20
40
20
50
140.7105932
51
259.6951535
0
LINE
8
0
10
-15.479146
20
32.6647558
11
29.520854
21
87.6647558
0
ARC
8
0
10
45
20
75
40
20
50
439.6951534
51
140.7105931
0
LINE
8
0
10
48.5777088
20
94.6773982
11
103.5777088
21
84.6773982
0
ARC
8
0
10
100
20
65
40
20
50
360
51
79.6951535
0
LINE
8
0
10
120
20
65
11
120
21
47.0509053
0
LINE
8
0
10
126.1507003
20
32.6218756
11
169.2744011
21
-8.7691982
0
ARC
8
0
10
155.4251017
20
-23.1982282
40
20
50
334.4439545
51
46.1744492
0
LINE
8
0
10
173.4683764
20
-31.8261038
11
163.0432747
21
-53.6278756
0
ARC
8
0
10
145
20
-45
40
20
50
217.8749838
51
334.4439546
0
LINE
8
0
10
129.2129557
20
-57.2788123
11
103.5955538
21
-24.3421527
0
ARC
8
0
10
140
20
47.0509053
40
20
50
180
51
226.1744481
0
ARC
8
0
10
87.8085095
20
-36.620965
40
20
50
37.8749837
51
79.6951556
0
LINE
8
0
10
-8.75
20
11.75
11
8.75
21
11.75
0
LINE
8
0
10
8.75
20
11.75
11
8.75
21
28.25
0
LINE
8
0
10
8.75
20
28.25
11
-8.75
21
28.25
0
LINE
8
0
10
-8.75
20
28.25
11
-8.75
21
11.75
0
LINE
8
0
10
11.25
20
1.75
11
28.75
21
1.75
0
LINE
8
0
10
28.75
20
1.75
11
28.75
21
18.25
0
LINE
8
0
10
28.75
20
18.25
11
11.25
21
18.25
0
LINE
8
0
10
11.25
20
18.25
11
11.25
21
1.75
0
LINE
8
0
10
11.25
20
21.75
11
28.75
21
21.75
0
LINE
8
0
10
28.75
20
21.75
11
28.75
21
38.25
0
LINE
8
0
10
28.75
20
38.25
11
11.25
21
38.25
0
LINE
8
0
10
11.25
20
38.25
11
11.25
21
21.75
0
LINE
8
0
10
11.25
20
41.75
11
28.75
21
41.75
0
LINE
8
0
10
28.75
20
41.75
11
28.75
21
58.25
0
LINE
8
0
10
28.75
20
58.25
11
11.25
21
58.25
0
LINE
8
0
10
11.25
20
58.25
11
11.25
21
41.75
0
LINE
8
0
10
31.25
20
16.75
11
48.75
21
16.75
0
LINE
8
0
10
48.75
20
16.75
11
48.75
21
33.25
0
LINE
8
0
10
48.75
20
33.25
11
31.25
21
33.25
0
LINE
8
0
10
31.25
20
33.25
11
31.25
21
16.75
0
LINE
8
0
10
31.25
20
36.75
11
48.75
21
36.75
0
LINE
8
0
10
48.75
20
36.75
11
48.75
21
53.25
0
LINE
8
0
10
48.75
20
53.25
11
31.25
21
53.25
0
LINE
8
0
10
31.25
20
53.25
11
31.25
21
36.75
0
LINE
8
0
10
31.25
20
56.75
11
48.75
21
56.75
0
LINE
8
0
10
48.75
20
56.75
11
48.75
21
73.25
0
LINE
8
0
10
48.75
20
73.25
11
31.25
21
73.25
0
LINE
8
0
10
31.25
20
73.25
11
31.25
21
56.75
0
LINE
8
0
10
51.25
20
26.75
11
68.75
21
26.75
0
LINE
8
0
10
68.75
20
26.75
11
68.75
21
43.25
0
LINE
8
0
10
68.75
20
43.25
11
51.25
21
43.25
0
LINE
8
0
10
51.25
20
43.25
11
51.25
21
26.75
0
LINE
8
0
10
51.25
20
46.75
11
68.75
21
46.75
0
LINE
8
0
10
68.75
20
46.75
11
68.75
21
63.25
0
LINE
8
0
10
68.75
20
63.25
11
51.25
21
63.25
0
LINE
8
0
10
51.25
20
63.25
11
51.25
21
46.75
0
LINE
8
0
10
51.25
20
66.75
11
68.75
21
66.75
0
LINE
8
0
10
68.75
20
66.75
11
68.75
21
83.25
0
LINE
8
0
10
68.75
20
83.25
11
51.25
21
83.25
0
LINE
8
0
10
51.25
20
83.25
11
51.25
21
66.75
0
LINE
8
0
10
71.25
20
1.75
11
88.75
21
1.75
0
LINE
8
0
10
88.75
20
1.75
11
88.75
21
18.25
0
LINE
8
0
10
88.75
20
18.25
11
71.25
21
18.25
0
LINE
8
0
10
71.25
20
18.25
11
71.25
21
1.75
0
LINE
8
0
10
71.25
20
21.75
11
88.75
21
21.75
0
LINE
8
0
10
88.75
20
21.75
11
88.75
21
38.25
0
LINE
8
0
10
88.75
20
38.25
11
71.25
21
38.25
0
LINE
8
0
10
71.25
20
38.25
11
71.25
21
21.75
0
LINE
8
0
10
71.25
20
41.75
11
88.75
21
41.75
0
LINE
8
0
10
88.75
20
41.75
11
88.75
21
58.25
0
LINE
8
0
10
88.75
20
58.25
11
71.25
21
58.25
0
LINE
8
0
10
71.25
20
58.25
11
71.25
21
41.75
0
LINE
8
0
10
71.25
20
61.75
11
88.75
21
61.75
0
LINE
8
0
10
88.75
20
61.75
11
88.75
21
78.25
0
LINE
8
0
10
88.75
20
78.25
11
71.25
21
78.25
0
LINE
8
0
10
71.25
20
78.25
11
71.25
21
61.75
0
LINE
8
0
10
91.25
20
-3.25
11
108.75
21
-3.25
0
LINE
8
0
10
108.75
20
-3.25
11
108.75
21
13.25
0
LINE
8
0
10
108.75
20
13.25
11
91.25
21
13.25
0
LINE
8
0
10
91.25
20
13.25
11
91.25
21
-3.25
0
LINE
8
0
10
91.25
20
16.75
11
108.75
21
16.75
0
LINE
8
0
10
108.75
20
16.75
11
108.75
21
33.25
0
LINE
8
0
10
108.75
20
33.25
11
91.25
21
33.25
0
LINE
8
0
10
91.25
20
33.25
11
91.25
21
16.75
0
LINE
8
0
10
91.25
20
36.75
11
108.75
21
36.75
0
LINE
8
0
10
108.75
20
36.75
11
108.75
21
53.25
0
LINE
8
0
10
108.75
20
53.25
11
91.25
21
53.25
0
LINE
8
0
10
91.25
20
53.25
11
91.25
21
36.75
0
LINE
8
0
10
91.25
20
56.75
11
108.75
21
56.75
0
LINE
8
0
10
108.75
20
56.75
11
108.75
21
73.25
0
LINE
8
0
10
108.75
20
73.25
11
91.25
21
73.25
0
LINE
8
0
10
91.25
20
73.25
11
91.25
21
56.75
0
LINE
8
0
10
142.5644252
20
-56.7767982
11
156.899586
21
-46.7392105
0
LINE
8
0
10
156.899586
20
-46.7392105
11
147.4355748
21
-33.2232018
0
LINE
8
0
10
147.4355748
20
-33.2232018
11
133.100414
21
-43.2607895
0
LINE
8
0
10
133.100414
20
-43.2607895
11
142.5644252
21
-56.7767982
0
LINE
8
0
10
131.5550037
20
-39.7420653
11
144.9607815
21
-28.4932822
0
LINE
8
0
10
144.9607815
20
-28.4932822
11
134.3547859
21
-15.8535489
0
LINE
8
0
10
134.3547859
20
-15.8535489
11
120.9490081
21
-27.102332
0
LINE
8
0
10
120.9490081
20
-27.102332
11
131.5550037
21
-39.7420653
0
LINE
8
0
10
119.1028016
20
-23.7316891
11
131.4771703
21
-11.3573204
0
LINE
8
0
10
131.4771703
20
-11.3573204
11
119.8099084
21
0.3099415
0
LINE
8
0
10
119.8099084
20
0.3099415
11
107.4355397
21
-12.0644272
0
LINE
8
0
10
107.4355397
20
-12.0644272
11
119.1028016
21
-23.7316891
0
LINE
8
0
10
153.1954313
20
-35.0157394
11
167.3532287
21
-24.7294974
0
LINE
8
0
10
167.3532287
20
-24.7294974
11
157.6547721
21
-11.380717
0
LINE
8
0
10
157.6547721
20
-11.380717
11
143.4969747
21
-21.666959
0
LINE
8
0
10
143.4969747
20
-21.666959
11
153.1954313
21
-35.0157394
0
LINE
8
0
10
141.8903896
20
-18.1757418
11
155.0978072
21
-6.6947088
0
LINE
8
0
10
155.0978072
20
-6.6947088
11
144.2728332
21
5.7579992
0
LINE
8
0
10
144.2728332
20
5.7579992
11
131.0654156
21
-5.7230338
0
LINE
8
0
10
131.0654156
20
-5.7230338
11
141.8903896
21
-18.1757418
0
LINE
8
0
10
129.1606644
20
-2.3851249
11
141.3171859
21
10.2033216
0
LINE
8
0
10
141.3171859
20
10.2033216
11
129.4480792
21
21.6651847
0
LINE
8
0
10
129.4480792
20
21.6651847
11
117.2915577
21
9.0767382
0
LINE
8
0
10
117.2915577
20
9.0767382
11
129.1606644
21
-2.3851249
0
ENDSEC
0
EOF