0
SECTION
2
HEADER
9
$INSUNITS
70
4
0
ENDSEC
0
SECTION
2
TABLES
0
TABLE
2
LTYPE
0
LTYPE
72
65
70
64
2
CONTINUOUS
3
______
73
0
40
0
0
ENDTAB
0
TABLE
2
LAYER
0
ENDTAB
0
ENDSEC
0
SECTION
2
ENTITIES
0
LINE
8
0
10
91.25
20
-88.25
11
108.75
21
-88.25
0
LINE
8
0
10
108.75
20
-88.25
11
108.75
21
-71.75
0
LINE
8
0
10
108.75
20
-71.75
11
91.25
21
-71.75
0
LINE
8
0
10
91.25
20
-71.75
11
91.25
21
-88.25
0
LINE
8
0
10
111.25
20
-98.25
11
128.75
21
-98.25
0
LINE
8
0
10
128.75
20
-98.25
11
128.75
21
-81.75
0
LINE
8
0
10
128.75
20
-81.75
11
111.25
21
-81.75
0
LINE
8
0
10
111.25
20
-81.75
11
111.25
21
-98.25
0
LINE
8
0
10
111.25
20
-78.25
11
128.75
21
-78.25
0
LINE
8
0
10
128.75
20
-78.25
11
128.75
21
-61.75
0
LINE
8
0
10
128.75
20
-61.75
11
111.25
21
-61.75
0
LINE
8
0
10
111.25
20
-61.75
11
111.25
21
-78.25
0
LINE
8
0
10
111.25
20
-58.25
11
128.75
21
-58.25
0
LINE
8
0
10
128.75
20
-58.25
11
128.75
21
-41.75
0
LINE
8
0
10
128.75
20
-41.75
11
111.25
21
-41.75
0
LINE
8
0
10
111.25
20
-41.75
11
111.25
21
-58.25
0
LINE
8
0
10
131.25
20
-83.25
11
148.75
21
-83.25
0
LINE
8
0
10
148.75
20
-83.25
11
148.75
21
-66.75
0
LINE
8
0
10
148.75
20
-66.75
11
131.25
21
-66.75
0
LINE
8
0
10
131.25
20
-66.75
11
131.25
21
-83.25
0
LINE
8
0
10
131.25
20
-63.25
11
148.75
21
-63.25
0
LINE
8
0
10
148.75
20
-63.25
11
148.75
21
-46.75
0
LINE
8
0
10
148.75
20
-46.75
11
131.25
21
-46.75
0
LINE
8
0
10
131.25
20
-46.75
11
131.25
21
-63.25
0
LINE
8
0
10
131.25
20
-43.25
11
148.75
21
-43.25
0
LINE
8
0
10
148.75
20
-43.25
11
148.75
21
-26.75
0
LINE
8
0
10
148.75
20
-26.75
11
131.25
21
-26.75
0
LINE
8
0
10
131.25
20
-26.75
11
131.25
21
-43.25
0
LINE
8
0
10
151.25
20
-73.25
11
168.75
21
-73.25
0
LINE
8
0
10
168.75
20
-73.25
11
168.75
21
-56.75
0
LINE
8
0
10
168.75
20
-56.75
11
151.25
21
-56.75
0
LINE
8
0
10
151.25
20
-56.75
11
151.25
21
-73.25
0
LINE
8
0
10
151.25
20
-53.25
11
168.75
21
-53.25
0
LINE
8
0
10
168.75
20
-53.25
11
168.75
21
-36.75
0
LINE
8
0
10
168.75
20
-36.75
11
151.25
21
-36.75
0
LINE
8
0
10
151.25
20
-36.75
11
151.25
21
-53.25
0
LINE
8
0
10
151.25
20
-33.25
11
168.75
21
-33.25
0
LINE
8
0
10
168.75
20
-33.25
11
168.75
21
-16.75
0
LINE
8
0
10
168.75
20
-16.75
11
151.25
21
-16.75
0
LINE
8
0
10
151.25
20
-16.75
11
151.25
21
-33.25
0
LINE
8
0
10
171.25
20
-98.25
11
188.75
21
-98.25
0
LINE
8
0
10
188.75
20
-98.25
11
188.75
21
-81.75
0
LINE
8
0
10
188.75
20
-81.75
11
171.25
21
-81.75
0
LINE
8
0
10
171.25
20
-81.75
11
171.25
21
-98.25
0
LINE
8
0
10
171.25
20
-78.25
11
188.75
21
-78.25
0
LINE
8
0
10
188.75
20
-78.25
11
188.75
21
-61.75
0
LINE
8
0
10
188.75
20
-61.75
11
171.25
21
-61.75
0
LINE
8
0
10
171.25
20
-61.75
11
171.25
21
-78.25
0
LINE
8
0
10
171.25
20
-58.25
11
188.75
21
-58.25
0
LINE
8
0
10
188.75
20
-58.25
11
188.75
21
-41.75
0
LINE
8
0
10
188.75
20
-41.75
11
171.25
21
-41.75
0
LINE
8
0
10
171.25
20
-41.75
11
171.25
21
-58.25
0
LINE
8
0
10
171.25
20
-38.25
11
188.75
21
-38.25
0
LINE
8
0
10
188.75
20
-38.25
11
188.75
21
-21.75
0
LINE
8
0
10
188.75
20
-21.75
11
171.25
21
-21.75
0
LINE
8
0
10
171.25
20
-21.75
11
171.25
21
-38.25
0
LINE
8
0
10
191.25
20
-103.25
11
208.75
21
-103.25
0
LINE
8
0
10
208.75
20
-103.25
11
208.75
21
-86.75
0
LINE
8
0
10
208.75
20
-86.75
11
191.25
21
-86.75
0
LINE
8
0
10
191.25
20
-86.75
11
191.25
21
-103.25
0
LINE
8
0
10
191.25
20
-83.25
11
208.75
21
-83.25
0
LINE
8
0
10
208.75
20
-83.25
11
208.75
21
-66.75
0
LINE
8
0
10
208.75
20
-66.75
11
191.25
21
-66.75
0
LINE
8
0
10
191.25
20
-66.75
11
191.25
21
-83.25
0
LINE
8
0
10
191.25
20
-63.25
11
208.75
21
-63.25
0
LINE
8
0
10
208.75
20
-63.25
11
208.75
21
-46.75
0
LINE
8
0
10
208.75
20
-46.75
11
191.25
21
-46.75
0
LINE
8
0
10
191.25
20
-46.75
11
191.25
21
-63.25
0
LINE
8
0
10
191.25
20
-43.25
11
208.75
21
-43.25
0
LINE
8
0
10
208.75
20
-43.25
11
208.75
21
-26.75
0
LINE
8
0
10
208.75
20
-26.75
11
191.25
21
-26.75
0
LINE
8
0
10
191.25
20
-26.75
11
191.25
21
-43.25
0
LINE
8
0
10
242.5644252
20
-156.7767982
11
256.899586
21
-146.7392105
0
LINE
8
0
10
256.899586
20
-146.7392105
11
247.4355748
21
-133.2232018
0
LINE
8
0
10
247.4355748
20
-133.2232018
11
233.100414
21
-143.2607895
0
LINE
8
0
10
233.100414
20
-143.2607895
11
242.5644252
21
-156.7767982
0
LINE
8
0
10
231.5550037
20
-139.7420653
11
244.9607815
21
-128.4932822
0
LINE
8
0
10
244.9607815
20
-128.4932822
11
234.3547859
21
-115.8535489
0
LINE
8
0
10
234.3547859
20
-115.8535489
11
220.9490081
21
-127.102332
0
LINE
8
0
10
220.9490081
20
-127.102332
11
231.5550037
21
-139.7420653
0
LINE
8
0
10
219.1028016
20
-123.7316891
11
231.4771703
21
-111.3573204
0
LINE
8
0
10
231.4771703
20
-111.3573204
11
219.8099084
21
-99.6900585
0
LINE
8
0
10
219.8099084
20
-99.6900585
11
207.4355397
21
-112.0644272
0
LINE
8
0
10
207.4355397
20
-112.0644272
11
219.1028016
21
-123.7316891
0
LINE
8
0
10
253.1954313
20
-135.0157394
11
267.3532287
21
-124.7294974
0
LINE
8
0
10
267.3532287
20
-124.7294974
11
257.6547721
21
-111.380717
0
LINE
8
0
10
257.6547721
20
-111.380717
11
243.4969747
21
-121.666959
0
LINE
8
0
10
243.4969747
20
-121.666959
11
253.1954313
21
-135.0157394
0
LINE
8
0
10
241.8903896
20
-118.1757418
11
255.0978072
21
-106.6947088
0
LINE
8
0
10
255.0978072
20
-106.6947088
11
244.2728332
21
-94.2420008
0
LINE
8
0
10
244.2728332
20
-94.2420008
11
231.0654156
21
-105.7230338
0
LINE
8
0
10
231.0654156
20
-105.7230338
11
241.8903896
21
-118.1757418
0
LINE
8
0
10
229.1606644
20
-102.3851249
11
241.3171859
21
-89.7966784
0
LINE
8
0
10
241.3171859
20
-89.7966784
11
229.4480792
21
-78.3348153
0
LINE
8
0
10
229.4480792
20
-78.3348153
11
217.2915577
21
-90.9232618
0
LINE
8
0
10
217.2915577
20
-90.9232618
11
229.1606644
21
-102.3851249
0
ENDSEC
0
EOF